<mxfile host="drawio-plugin" modified="2022-11-24T06:45:29.915Z" agent="5.0 (Macintosh; Intel Mac OS X 10_15_7) AppleWebKit/537.36 (KHTML, like Gecko) Chrome/98.0.4758.102 Safari/537.36" etag="kfHHiZuOBd-aTJpWPZdv" version="15.5.4" type="embed"><diagram id="Yo6Zvny2ZRX3JAPKxXua" name="Page 2"><mxGraphModel dx="1997" dy="2031" grid="0" gridSize="50" guides="1" tooltips="1" connect="1" arrows="1" fold="1" page="1" pageScale="1" pageWidth="850" pageHeight="1100" background="#FFFFFF" math="0" shadow="0"><root><mxCell id="0"/><mxCell id="1" parent="0"/><mxCell id="8I9pphBKhg92I5GMk5e_-31" value="" style="graphMlID=e0;endArrow=none;strokeColor=#FF6392;strokeWidth=1.0;startArrow=diamond;startFill=0;endFill=1;exitX=1;exitY=0.25;exitDx=0;exitDy=0;fontColor=#5AA9E6;entryX=-0.008;entryY=-0.286;entryDx=0;entryDy=0;entryPerimeter=0;" parent="1" source="8I9pphBKhg92I5GMk5e_-50" target="8I9pphBKhg92I5GMk5e_-57" edge="1"><mxGeometry relative="1" as="geometry"/></mxCell><mxCell id="8I9pphBKhg92I5GMk5e_-32" value="" style="graphMlID=e1;endArrow=none;strokeColor=#FF6392;strokeWidth=1.0;startArrow=diamond;startFill=0;endFill=1;exitX=1;exitY=0.5;exitDx=0;exitDy=0;fontColor=#5AA9E6;entryX=0;entryY=0.5;entryDx=0;entryDy=0;" parent="1" source="8I9pphBKhg92I5GMk5e_-51" target="8I9pphBKhg92I5GMk5e_-61" edge="1"><mxGeometry relative="1" as="geometry"/></mxCell><mxCell id="8I9pphBKhg92I5GMk5e_-33" value="" style="graphMlID=e2;endArrow=none;strokeColor=#FF6392;strokeWidth=1.0;startArrow=diamond;startFill=0;endFill=1;fontColor=#5AA9E6;entryX=0;entryY=0.25;entryDx=0;entryDy=0;" parent="1" source="8I9pphBKhg92I5GMk5e_-60" target="8I9pphBKhg92I5GMk5e_-89" edge="1"><mxGeometry relative="1" as="geometry"><mxPoint x="648" y="240" as="sourcePoint"/></mxGeometry></mxCell><mxCell id="8I9pphBKhg92I5GMk5e_-34" value="" style="graphMlID=e3;endArrow=none;strokeColor=#FF6392;strokeWidth=1.0;startArrow=diamond;startFill=0;endFill=1;exitX=0.988;exitY=-0.077;exitDx=0;exitDy=0;exitPerimeter=0;fontColor=#5AA9E6;entryX=-0.023;entryY=0.105;entryDx=0;entryDy=0;entryPerimeter=0;" parent="1" source="8I9pphBKhg92I5GMk5e_-53" target="8I9pphBKhg92I5GMk5e_-64" edge="1"><mxGeometry relative="1" as="geometry"><mxPoint x="840" y="580" as="targetPoint"/></mxGeometry></mxCell><mxCell id="8I9pphBKhg92I5GMk5e_-35" value="" style="graphMlID=e4;endArrow=none;strokeColor=#FF6392;strokeWidth=1.0;startArrow=diamond;startFill=0;endFill=1;exitX=0.975;exitY=1;exitDx=0;exitDy=0;exitPerimeter=0;fontColor=#5AA9E6;entryX=0;entryY=0.5;entryDx=0;entryDy=0;" parent="1" source="8I9pphBKhg92I5GMk5e_-53" target="8I9pphBKhg92I5GMk5e_-71" edge="1"><mxGeometry relative="1" as="geometry"/></mxCell><mxCell id="8I9pphBKhg92I5GMk5e_-36" value="" style="graphMlID=e5;endArrow=none;strokeColor=#FF6392;strokeWidth=1.0;startArrow=diamond;startFill=0;endFill=1;fontColor=#5AA9E6;exitX=1.001;exitY=-0.077;exitDx=0;exitDy=0;exitPerimeter=0;" parent="1" source="8I9pphBKhg92I5GMk5e_-55" target="8I9pphBKhg92I5GMk5e_-82" edge="1"><mxGeometry relative="1" as="geometry"/></mxCell><mxCell id="8I9pphBKhg92I5GMk5e_-37" value="" style="graphMlID=e6;endArrow=none;strokeColor=#FF6392;strokeWidth=1.0;startArrow=diamond;startFill=0;endFill=1;fontColor=#5AA9E6;" parent="1" source="8I9pphBKhg92I5GMk5e_-64" target="8I9pphBKhg92I5GMk5e_-97" edge="1"><mxGeometry relative="1" as="geometry"/></mxCell><mxCell id="8I9pphBKhg92I5GMk5e_-38" value="" style="graphMlID=e7;endArrow=none;strokeColor=#FF6392;strokeWidth=1.0;startArrow=none;startFill=1;endFill=1;fontColor=#5AA9E6;entryX=0;entryY=0.25;entryDx=0;entryDy=0;exitX=1;exitY=0.5;exitDx=0;exitDy=0;" parent="1" source="8I9pphBKhg92I5GMk5e_-67" target="8I9pphBKhg92I5GMk5e_-72" edge="1"><mxGeometry relative="1" as="geometry"/></mxCell><mxCell id="8I9pphBKhg92I5GMk5e_-39" value="" style="graphMlID=e8;endArrow=none;strokeColor=#FF6392;strokeWidth=1.0;startArrow=diamond;startFill=0;endFill=1;fontColor=#5AA9E6;exitX=1;exitY=0.5;exitDx=0;exitDy=0;entryX=0;entryY=0.5;entryDx=0;entryDy=0;" parent="1" source="8I9pphBKhg92I5GMk5e_-57" target="8I9pphBKhg92I5GMk5e_-86" edge="1"><mxGeometry relative="1" as="geometry"><mxPoint x="710" y="80" as="sourcePoint"/></mxGeometry></mxCell><mxCell id="8I9pphBKhg92I5GMk5e_-40" value="" style="graphMlID=e9;endArrow=none;strokeColor=#0A0406;strokeWidth=1.0;startArrow=diamond;startFill=0;endFill=1;fontColor=#101E29;exitX=1;exitY=0.5;exitDx=0;exitDy=0;entryX=-0.013;entryY=0.08;entryDx=0;entryDy=0;entryPerimeter=0;" parent="1" source="8I9pphBKhg92I5GMk5e_-86" target="8I9pphBKhg92I5GMk5e_-105" edge="1"><mxGeometry relative="1" as="geometry"/></mxCell><mxCell id="8I9pphBKhg92I5GMk5e_-42" value="" style="graphMlID=e11;endArrow=none;strokeColor=#FF6392;strokeWidth=1.0;startArrow=diamond;startFill=0;endFill=1;fontColor=#5AA9E6;exitX=1;exitY=0.5;exitDx=0;exitDy=0;entryX=0.5;entryY=0;entryDx=0;entryDy=0;" parent="1" source="8I9pphBKhg92I5GMk5e_-97" edge="1" target="8I9pphBKhg92I5GMk5e_-108"><mxGeometry relative="1" as="geometry"><mxPoint x="1232" y="1435" as="targetPoint"/></mxGeometry></mxCell><mxCell id="8I9pphBKhg92I5GMk5e_-44" value="" style="graphMlID=e13;endArrow=none;strokeColor=#FF6392;strokeWidth=1.0;startArrow=none;startFill=1;endFill=1;fontColor=#5AA9E6;entryX=0.528;entryY=0.978;entryDx=0;entryDy=0;entryPerimeter=0;exitX=0.57;exitY=-0.037;exitDx=0;exitDy=0;exitPerimeter=0;" parent="1" source="8I9pphBKhg92I5GMk5e_-60" target="8I9pphBKhg92I5GMk5e_-57" edge="1"><mxGeometry relative="1" as="geometry"/></mxCell><mxCell id="8I9pphBKhg92I5GMk5e_-45" value="" style="graphMlID=e14;endArrow=none;strokeColor=#FF6392;strokeWidth=1.0;startArrow=none;startFill=1;endFill=1;fontColor=#5AA9E6;exitX=0.5;exitY=0;exitDx=0;exitDy=0;" parent="1" source="8I9pphBKhg92I5GMk5e_-96" target="8I9pphBKhg92I5GMk5e_-88" edge="1"><mxGeometry relative="1" as="geometry"><mxPoint x="1177.6990312711996" y="279.6614280464578" as="targetPoint"/></mxGeometry></mxCell><mxCell id="8I9pphBKhg92I5GMk5e_-50" value="VirtualWorld" style="swimlane;fontStyle=1;align=center;verticalAlign=top;childLayout=stackLayout;horizontal=1;startSize=20;horizontalStack=0;resizeParent=1;resizeParentMax=0;resizeLast=0;collapsible=1;marginBottom=0;hachureGap=4;pointerEvents=0;fillColor=#FFE45E;strokeColor=#FF6392;fontColor=#5AA9E6;" parent="1" vertex="1"><mxGeometry x="20" y="150" width="300" height="610" as="geometry"/></mxCell><mxCell id="8I9pphBKhg92I5GMk5e_-51" value="+TIMER_ACTION_PERIOD: int         &lt;&lt;static&gt;&gt;&#10;+VIEW_WIDTH: int                          &lt;&lt;static&gt;&gt;&#10;+VIEW_HEIGHT: int                         &lt;&lt;static&gt;&gt;&#10;+TILE_WIDTH: int                           &lt;&lt;static&gt;&gt;&#10;+TILE_HEIGHT: int                          &lt;&lt;static&gt;&gt;&#10;+WORLD_WIDTH_SCALE: int           &lt;&lt;static&gt;&gt;&#10;+WORLD_HEIGHT_SCALE: int          &lt;&lt;static&gt;&gt;&#10;+VIEW_COLS: int                             &lt;&lt;static&gt;&gt;&#10;+VIEW_ROWS: int                            &lt;&lt;static&gt;&gt;&#10;+WORLD_COLS: int                         &lt;&lt;static&gt;&gt;&#10;+WORLD_ROWS: int                        &lt;&lt;static&gt;&gt;&#10;+IMAGE_LIST_FILE_NAME: String    &lt;&lt;static&gt;&gt;&#10;+DEFAULT_IMAGE_NAME: String    &lt;&lt;static&gt;&gt;&#10;+DEFAULT_IMAGE_COLOR: int       &lt;&lt;static&gt;&gt;&#10;+LOAD_FILE_NAME: String            &lt;&lt;static&gt;&gt;&#10;+FAST_FLAG: String                      &lt;&lt;static&gt;&gt;&#10;+FASTER_FLAG: String                  &lt;&lt;static&gt;&gt;&#10;+FASTEST_FLAG: String                &lt;&lt;static&gt;&gt;&#10;+FAST_SCALE: double                  &lt;&lt;static&gt;&gt;&#10;+FASTER_SCALE: double              &lt;&lt;static&gt;&gt;&#10;+FASTEST_SCALE: double            &lt;&lt;static&gt;&gt;&#10;+timeScale: double&#10;+imageStore: ImageStore&#10;+world: WorldModel&#10;+view: WorldView&#10;+scheduler: EventScheduler" style="text;strokeColor=none;fillColor=none;align=left;verticalAlign=top;spacingLeft=4;spacingRight=4;overflow=hidden;rotatable=0;points=[[0,0.5],[1,0.5]];portConstraint=eastwest;fontColor=#5AA9E6;" parent="8I9pphBKhg92I5GMk5e_-50" vertex="1"><mxGeometry y="20" width="300" height="380" as="geometry"/></mxCell><mxCell id="8I9pphBKhg92I5GMk5e_-52" value="" style="line;strokeWidth=1;fillColor=none;align=left;verticalAlign=middle;spacingTop=-1;spacingLeft=3;spacingRight=3;rotatable=0;labelPosition=right;points=[];portConstraint=eastwest;strokeColor=#FF6392;fontColor=#5AA9E6;" parent="8I9pphBKhg92I5GMk5e_-50" vertex="1"><mxGeometry y="400" width="300" height="8" as="geometry"/></mxCell><mxCell id="8I9pphBKhg92I5GMk5e_-53" value="+settings()&#10;+setup()&#10;+draw()&#10;+mousePressed()&#10;-mouseToPoint()&#10;+keyPressed()&#10;+createDefaultBackground()         &lt;&lt;static&gt;&gt;&#10;+createImageColored()                 &lt;&lt;static&gt;&gt;&#10;+loadWorld()                                 &lt;&lt;static&gt;&gt;&#10;+loadWorld()                                 &lt;&lt;static&gt;&gt;&#10;+scheduleActions()                       &lt;&lt;static&gt;&gt;&#10;+parseCommandLine()                  &lt;&lt;static&gt;&gt;&#10;+main()                                         &lt;&lt;static&gt;&gt;" style="text;strokeColor=none;fillColor=none;align=left;verticalAlign=top;spacingLeft=4;spacingRight=4;overflow=hidden;rotatable=0;points=[[0,0.5],[1,0.5]];portConstraint=eastwest;fontColor=#5AA9E6;" parent="8I9pphBKhg92I5GMk5e_-50" vertex="1"><mxGeometry y="408" width="300" height="202" as="geometry"/></mxCell><mxCell id="8I9pphBKhg92I5GMk5e_-54" value="WorldModel" style="swimlane;fontStyle=1;align=center;verticalAlign=top;childLayout=stackLayout;horizontal=1;startSize=26;horizontalStack=0;resizeParent=1;resizeParentMax=0;resizeLast=0;collapsible=1;marginBottom=0;hachureGap=4;pointerEvents=0;sketch=0;fontColor=#5AA9E6;strokeColor=#FF6392;fillColor=#FFE45E;" parent="1" vertex="1"><mxGeometry x="520" y="52.03" width="280" height="900" as="geometry"/></mxCell><mxCell id="8I9pphBKhg92I5GMk5e_-55" value="-numRows: int&#10;-numCols: int&#10;-background: Background[][]&#10;-occupancy: Entity[][]&#10;-entities: Set&lt;Entity&gt;&#10;+SAPLING_KEY: String                       &lt;&lt;static&gt;&gt;&#10;+SAPLING_HEALTH_LIMIT: int            &lt;&lt;static&gt;&gt;&#10;+SAPLING_NUM_PROPERTIES: int    &lt;&lt;static&gt;&gt;&#10;+OBSTACLE_KEY: String                        &lt;&lt;static&gt;&gt;&#10;+OBSTACLE_NUM_PROPERTIES: int   &lt;&lt;static&gt;&gt;&#10;+OBSTACLE_ANIMATION_PERIOD: int &lt;&lt;static&gt;&gt;&#10;&#10;+DUDE_KEY: String                            &lt;&lt;static&gt;&gt;&#10;+DUDE_NUM_PROPERTIES: int        &lt;&lt;static&gt;&gt;&#10;+DUDE_LIMIT: int                              &lt;&lt;static&gt;&gt;&#10;+DUDE_ACTION_PERIOD: int             &lt;&lt;static&gt;&gt;&#10;+DUDE_ANIMATION_PERIOD: int        &lt;&lt;static&gt;&gt;&#10;&#10;+HOUSE_KEY: String                           &lt;&lt;static&gt;&gt;&#10;+HOUSE_NUM_PROPERTIES: int       &lt;&lt;static&gt;&gt;&#10;&#10;+FAIRY_KEY: String                            &lt;&lt;static&gt;&gt;&#10;+FAIRY_NUM_PROPERTIES: int         &lt;&lt;static&gt;&gt;&#10;+FAIRY_ANIMATION_PERIOD: int      &lt;&lt;static&gt;&gt;&#10;+FAIRY_ACTION_PERIOD: int      &lt;&lt;static&gt;&gt;&#10;&#10;+TREE_KEY: String                            &lt;&lt;static&gt;&gt;&#10;+TREE_NUM_PROPERTIES: int         &lt;&lt;static&gt;&gt;&#10;+TREE_ANIMATION_PERIOD: int      &lt;&lt;static&gt;&gt;&#10;+TREE_ACTION_PERIOD: int          &lt;&lt;static&gt;&gt;&#10;+PROPERTY_KEY: int                           &lt;&lt;static&gt;&gt;&#10;&#10;&#10;&#10;&#10;" style="text;strokeColor=none;fillColor=none;align=left;verticalAlign=top;spacingLeft=4;spacingRight=4;overflow=hidden;rotatable=0;points=[[0,0.5],[1,0.5]];portConstraint=eastwest;fontColor=#000000;" parent="8I9pphBKhg92I5GMk5e_-54" vertex="1"><mxGeometry y="26" width="280" height="454" as="geometry"/></mxCell><mxCell id="8I9pphBKhg92I5GMk5e_-56" value="" style="line;strokeWidth=1;fillColor=none;align=left;verticalAlign=middle;spacingTop=-1;spacingLeft=3;spacingRight=3;rotatable=0;labelPosition=right;points=[];portConstraint=eastwest;strokeColor=#FF6392;fontColor=#5AA9E6;" parent="8I9pphBKhg92I5GMk5e_-54" vertex="1"><mxGeometry y="480" width="280" height="8" as="geometry"/></mxCell><mxCell id="8I9pphBKhg92I5GMk5e_-57" value="TODO&#10;+getNumCols()&#10;+getNumRows()&#10;+getEntities()&#10;+withinBounds()&#10;+findNearest()&#10;+parseSapling()&#10;+parseDude()&#10;+parseFairy()&#10;+parseTree()&#10;+parseObstacle()&#10;+parseHouse()&#10;+parseStump()&#10;+tryAddEntity()&#10;+isOccupied()&#10;+addEntity()&#10;+moveEntity()&#10;+removeEntity()&#10;+removeEntityAt()&#10;+getOccupant()&#10;+getOccupancyCell()&#10;+setOccupancyCell()&#10;+getBackgroundImage()&#10;+getBackgroundCell()&#10;+load()&#10;+parseSaveFile()&#10;+parseBackgroundRow()&#10;+parseEntity()" style="text;strokeColor=none;fillColor=none;align=left;verticalAlign=top;spacingLeft=4;spacingRight=4;overflow=hidden;rotatable=0;points=[[0,0.5],[1,0.5]];portConstraint=eastwest;fontColor=#020405;" parent="8I9pphBKhg92I5GMk5e_-54" vertex="1"><mxGeometry y="488" width="280" height="412" as="geometry"/></mxCell><mxCell id="8I9pphBKhg92I5GMk5e_-60" value="WorldView" style="swimlane;fontStyle=1;align=center;verticalAlign=top;childLayout=stackLayout;horizontal=1;startSize=26;horizontalStack=0;resizeParent=1;resizeParentMax=0;resizeLast=0;collapsible=1;marginBottom=0;hachureGap=4;pointerEvents=0;sketch=0;fontColor=#5AA9E6;strokeColor=#FF6392;fillColor=#FFE45E;" parent="1" vertex="1"><mxGeometry x="510" y="990" width="280" height="230" as="geometry"/></mxCell><mxCell id="8I9pphBKhg92I5GMk5e_-61" value="-screen: PApplet&#10;-world: WorldModel&#10;-tileWidth: int&#10;-tileHeight: int&#10;-viewport: Viewport" style="text;strokeColor=none;fillColor=none;align=left;verticalAlign=top;spacingLeft=4;spacingRight=4;overflow=hidden;rotatable=0;points=[[0,0.5],[1,0.5]];portConstraint=eastwest;fontColor=#000000;" parent="8I9pphBKhg92I5GMk5e_-60" vertex="1"><mxGeometry y="26" width="280" height="84" as="geometry"/></mxCell><mxCell id="8I9pphBKhg92I5GMk5e_-62" value="" style="line;strokeWidth=1;fillColor=none;align=left;verticalAlign=middle;spacingTop=-1;spacingLeft=3;spacingRight=3;rotatable=0;labelPosition=right;points=[];portConstraint=eastwest;strokeColor=#FF6392;fontColor=#5AA9E6;" parent="8I9pphBKhg92I5GMk5e_-60" vertex="1"><mxGeometry y="110" width="280" height="8" as="geometry"/></mxCell><mxCell id="8I9pphBKhg92I5GMk5e_-63" value="TODO&#10;+getViewport()&#10;+shiftView()&#10;+drawBackground()&#10;+drawEntities()&#10;+drawViewport()&#10;+clamp()        &lt;&lt;static&gt;&gt;" style="text;strokeColor=none;fillColor=none;align=left;verticalAlign=top;spacingLeft=4;spacingRight=4;overflow=hidden;rotatable=0;points=[[0,0.5],[1,0.5]];portConstraint=eastwest;fontColor=#000000;" parent="8I9pphBKhg92I5GMk5e_-60" vertex="1"><mxGeometry y="118" width="280" height="112" as="geometry"/></mxCell><mxCell id="8I9pphBKhg92I5GMk5e_-64" value="EventScheduler" style="swimlane;fontStyle=1;align=center;verticalAlign=top;childLayout=stackLayout;horizontal=1;startSize=26;horizontalStack=0;resizeParent=1;resizeParentMax=0;resizeLast=0;collapsible=1;marginBottom=0;hachureGap=4;pointerEvents=0;sketch=0;fontColor=#5AA9E6;strokeColor=#FF6392;fillColor=#FFE45E;" parent="1" vertex="1"><mxGeometry x="510" y="1250" width="280" height="200" as="geometry"/></mxCell><mxCell id="8I9pphBKhg92I5GMk5e_-65" value="-eventQueue: PriorityQueue&lt;Event&gt;&#10;-pendingEvents: Map&lt;Entity, List&lt;Event&gt;&gt;&#10;-currentTime: double" style="text;strokeColor=none;fillColor=none;align=left;verticalAlign=top;spacingLeft=4;spacingRight=4;overflow=hidden;rotatable=0;points=[[0,0.5],[1,0.5]];portConstraint=eastwest;fontColor=#000000;" parent="8I9pphBKhg92I5GMk5e_-64" vertex="1"><mxGeometry y="26" width="280" height="64" as="geometry"/></mxCell><mxCell id="8I9pphBKhg92I5GMk5e_-66" value="" style="line;strokeWidth=1;fillColor=none;align=left;verticalAlign=middle;spacingTop=-1;spacingLeft=3;spacingRight=3;rotatable=0;labelPosition=right;points=[];portConstraint=eastwest;strokeColor=#FF6392;fontColor=#5AA9E6;" parent="8I9pphBKhg92I5GMk5e_-64" vertex="1"><mxGeometry y="90" width="280" height="8" as="geometry"/></mxCell><mxCell id="8I9pphBKhg92I5GMk5e_-67" value="TODO&#10;+getCurrentTime()&#10;+scheduleEvent()&#10;+unscheduleAllEvents&#10;+removePendingEvent()&#10;+updateOnTime()" style="text;strokeColor=none;fillColor=none;align=left;verticalAlign=top;spacingLeft=4;spacingRight=4;overflow=hidden;rotatable=0;points=[[0,0.5],[1,0.5]];portConstraint=eastwest;fontColor=#000000;" parent="8I9pphBKhg92I5GMk5e_-64" vertex="1"><mxGeometry y="98" width="280" height="102" as="geometry"/></mxCell><mxCell id="8I9pphBKhg92I5GMk5e_-68" value="ImageStore" style="swimlane;fontStyle=1;align=center;verticalAlign=top;childLayout=stackLayout;horizontal=1;startSize=26;horizontalStack=0;resizeParent=1;resizeParentMax=0;resizeLast=0;collapsible=1;marginBottom=0;hachureGap=4;pointerEvents=0;sketch=0;fontColor=#5AA9E6;strokeColor=#FF6392;fillColor=#FFE45E;" parent="1" vertex="1"><mxGeometry x="510" y="1490" width="280" height="250" as="geometry"/></mxCell><mxCell id="8I9pphBKhg92I5GMk5e_-69" value="-images: Map&lt;String, List&lt;PImage&gt;&gt;&#10;-defaultImages: List&lt;PImage&gt;&#10;+COLOR_MASK: int                             &lt;&lt;static&gt;&gt;&#10;+KEYED_IMAGE_MIN: int                    &lt;&lt;static&gt;&gt;&#10;+KEYED_RED_IDX: int                        &lt;&lt;static&gt;&gt;&#10;+KEYED_GREEN_IDX: int                    &lt;&lt;static&gt;&gt;&#10;+KEYED_BLUE_IDX: int                        &lt;&lt;static&gt;&gt;&#10;" style="text;strokeColor=none;fillColor=none;align=left;verticalAlign=top;spacingLeft=4;spacingRight=4;overflow=hidden;rotatable=0;points=[[0,0.5],[1,0.5]];portConstraint=eastwest;fontColor=#000000;" parent="8I9pphBKhg92I5GMk5e_-68" vertex="1"><mxGeometry y="26" width="280" height="114" as="geometry"/></mxCell><mxCell id="8I9pphBKhg92I5GMk5e_-70" value="" style="line;strokeWidth=1;fillColor=none;align=left;verticalAlign=middle;spacingTop=-1;spacingLeft=3;spacingRight=3;rotatable=0;labelPosition=right;points=[];portConstraint=eastwest;strokeColor=#FF6392;fontColor=#5AA9E6;" parent="8I9pphBKhg92I5GMk5e_-68" vertex="1"><mxGeometry y="140" width="280" height="8" as="geometry"/></mxCell><mxCell id="8I9pphBKhg92I5GMk5e_-71" value="TODO&#10;+getImageList()&#10;+loadImages()&#10;+processImageLine()        &lt;&lt;static&gt;&gt;&#10;+getImages()        &lt;&lt;static&gt;&gt;&#10;+setAlpha()        &lt;&lt;static&gt;&gt;&#10;" style="text;strokeColor=none;fillColor=none;align=left;verticalAlign=top;spacingLeft=4;spacingRight=4;overflow=hidden;rotatable=0;points=[[0,0.5],[1,0.5]];portConstraint=eastwest;fontColor=#000000;" parent="8I9pphBKhg92I5GMk5e_-68" vertex="1"><mxGeometry y="148" width="280" height="102" as="geometry"/></mxCell><mxCell id="8I9pphBKhg92I5GMk5e_-72" value="EventComparator" style="swimlane;fontStyle=1;align=center;verticalAlign=top;childLayout=stackLayout;horizontal=1;startSize=26;horizontalStack=0;resizeParent=1;resizeParentMax=0;resizeLast=0;collapsible=1;marginBottom=0;hachureGap=4;pointerEvents=0;sketch=0;fontColor=#5AA9E6;strokeColor=#FF6392;fillColor=#FFE45E;" parent="1" vertex="1"><mxGeometry x="850" y="580" width="240" height="190" as="geometry"/></mxCell><mxCell id="8I9pphBKhg92I5GMk5e_-73" value="+eventQueue: PriorityQueue&lt;Event&gt;&#10;+pendingEvents: Map&lt;Entity, List&lt;Event&gt;&gt;&#10;+timeScale: double" style="text;strokeColor=none;fillColor=none;align=left;verticalAlign=top;spacingLeft=4;spacingRight=4;overflow=hidden;rotatable=0;points=[[0,0.5],[1,0.5]];portConstraint=eastwest;fontColor=#000000;" parent="8I9pphBKhg92I5GMk5e_-72" vertex="1"><mxGeometry y="26" width="240" height="74" as="geometry"/></mxCell><mxCell id="8I9pphBKhg92I5GMk5e_-74" value="" style="line;strokeWidth=1;fillColor=none;align=left;verticalAlign=middle;spacingTop=-1;spacingLeft=3;spacingRight=3;rotatable=0;labelPosition=right;points=[];portConstraint=eastwest;strokeColor=#FF6392;fontColor=#5AA9E6;" parent="8I9pphBKhg92I5GMk5e_-72" vertex="1"><mxGeometry y="100" width="240" height="8" as="geometry"/></mxCell><mxCell id="8I9pphBKhg92I5GMk5e_-75" value="TODO&#10;+compare()" style="text;strokeColor=none;fillColor=none;align=left;verticalAlign=top;spacingLeft=4;spacingRight=4;overflow=hidden;rotatable=0;points=[[0,0.5],[1,0.5]];portConstraint=eastwest;fontColor=#000000;" parent="8I9pphBKhg92I5GMk5e_-72" vertex="1"><mxGeometry y="108" width="240" height="82" as="geometry"/></mxCell><mxCell id="8I9pphBKhg92I5GMk5e_-77" value="Functions" style="swimlane;fontStyle=1;align=center;verticalAlign=top;childLayout=stackLayout;horizontal=1;startSize=26;horizontalStack=0;resizeParent=1;resizeParentMax=0;resizeLast=0;collapsible=1;marginBottom=0;hachureGap=4;pointerEvents=0;sketch=0;fontColor=#5AA9E6;strokeColor=#FF6392;fillColor=#FFE45E;" parent="1" vertex="1"><mxGeometry x="40.00000000000006" y="910" width="360" height="200" as="geometry"/></mxCell><mxCell id="8I9pphBKhg92I5GMk5e_-78" value="&#10;+PROPERTY_KEY: int                           &lt;&lt;static&gt;&gt;&#10;+PROPERTY_COL:int    &lt;&lt;static&gt;&gt;&#10;+PROPERTY_ROW:in    &lt;&lt;static&gt;&gt;&#10;+ENTITY_NUM_PROPERTIES:int    &lt;&lt;static&gt;&gt;&#10;" style="text;strokeColor=none;fillColor=none;align=left;verticalAlign=top;spacingLeft=4;spacingRight=4;overflow=hidden;rotatable=0;points=[[0,0.5],[1,0.5]];portConstraint=eastwest;fontColor=#000000;" parent="8I9pphBKhg92I5GMk5e_-77" vertex="1"><mxGeometry y="26" width="360" height="84" as="geometry"/></mxCell><mxCell id="8I9pphBKhg92I5GMk5e_-79" value="" style="line;strokeWidth=1;fillColor=none;align=left;verticalAlign=middle;spacingTop=-1;spacingLeft=3;spacingRight=3;rotatable=0;labelPosition=right;points=[];portConstraint=eastwest;strokeColor=#FF6392;fontColor=#5AA9E6;" parent="8I9pphBKhg92I5GMk5e_-77" vertex="1"><mxGeometry y="110" width="360" height="8" as="geometry"/></mxCell><mxCell id="8I9pphBKhg92I5GMk5e_-80" value="+getIntFromRange()        &lt;&lt;static&gt;&gt; &#10;+getNumFromRange()        &lt;&lt;static&gt;&gt;" style="text;strokeColor=none;fillColor=none;align=left;verticalAlign=top;spacingLeft=4;spacingRight=4;overflow=hidden;rotatable=0;points=[[0,0.5],[1,0.5]];portConstraint=eastwest;fontColor=#000000;" parent="8I9pphBKhg92I5GMk5e_-77" vertex="1"><mxGeometry y="118" width="360" height="82" as="geometry"/></mxCell><mxCell id="8I9pphBKhg92I5GMk5e_-81" value="Background" style="swimlane;fontStyle=1;align=center;verticalAlign=top;childLayout=stackLayout;horizontal=1;startSize=26;horizontalStack=0;resizeParent=1;resizeParentMax=0;resizeLast=0;collapsible=1;marginBottom=0;hachureGap=4;pointerEvents=0;sketch=0;fontColor=#0B151C;strokeColor=#FF6392;fillColor=#FFE45E;" parent="1" vertex="1"><mxGeometry x="850" y="30" width="250" height="200" as="geometry"/></mxCell><mxCell id="8I9pphBKhg92I5GMk5e_-82" value="-id: String&#10;-images: List&lt;PImage&gt;&#10;-imageIndex: int" style="text;strokeColor=none;fillColor=none;align=left;verticalAlign=top;spacingLeft=4;spacingRight=4;overflow=hidden;rotatable=0;points=[[0,0.5],[1,0.5]];portConstraint=eastwest;fontColor=#0B151C;" parent="8I9pphBKhg92I5GMk5e_-81" vertex="1"><mxGeometry y="26" width="250" height="84" as="geometry"/></mxCell><mxCell id="8I9pphBKhg92I5GMk5e_-83" value="" style="line;strokeWidth=1;fillColor=none;align=left;verticalAlign=middle;spacingTop=-1;spacingLeft=3;spacingRight=3;rotatable=0;labelPosition=right;points=[];portConstraint=eastwest;fontColor=#0B151C;" parent="8I9pphBKhg92I5GMk5e_-81" vertex="1"><mxGeometry y="110" width="250" height="8" as="geometry"/></mxCell><mxCell id="8I9pphBKhg92I5GMk5e_-84" value="TODO&#10;+getImageIndex()&#10;+getImages()&#10;+getCurrentImage()    " style="text;strokeColor=none;fillColor=none;align=left;verticalAlign=top;spacingLeft=4;spacingRight=4;overflow=hidden;rotatable=0;points=[[0,0.5],[1,0.5]];portConstraint=eastwest;fontColor=#0B151C;" parent="8I9pphBKhg92I5GMk5e_-81" vertex="1"><mxGeometry y="118" width="250" height="82" as="geometry"/></mxCell><mxCell id="8I9pphBKhg92I5GMk5e_-85" value="Entity&#10;&lt;&lt;abstract&gt;&gt;" style="swimlane;fontStyle=1;align=center;verticalAlign=top;childLayout=stackLayout;horizontal=1;startSize=40;horizontalStack=0;resizeParent=1;resizeParentMax=0;resizeLast=0;collapsible=1;marginBottom=0;hachureGap=4;pointerEvents=0;sketch=0;fontColor=#101E29;strokeColor=#0A0406;fillColor=#FFE45E;" parent="1" vertex="1"><mxGeometry x="2440" y="-70" width="360" height="424" as="geometry"/></mxCell><mxCell id="8I9pphBKhg92I5GMk5e_-86" value="-id: String&#10;-position: Point&#10;-images: List&lt;PImage&gt;&#10;-imageIndex: int&#10;+SAPLING_KEY: String                            &lt;&lt;static&gt;&gt;&#10;+TREE_ANIMATION_PERIOD_MAX: int      &lt;&lt;static&gt;&gt;&#10;+TREE_ANIMATION_PERIOD_MIN: int      &lt;&lt;static&gt;&gt;&#10;+TREE_ACTION_PERIOD_MAX: int          &lt;&lt;static&gt;&gt;&#10;+TREE_ACTION_PERIOD_MIN: int          &lt;&lt;static&gt;&gt;&#10;+TREE_HEALTH_MAX: int                               &lt;&lt;static&gt;&gt;&#10;+TREE_HEALTH_MIN: int                               &lt;&lt;static&gt;&gt;&#10;+TREE_KEY: String                            &lt;&lt;static&gt;&gt;&#10;+STUMP_KEY: String.     &lt;&lt;static&gt;&gt;&#10;" style="text;strokeColor=#0A0406;fillColor=none;align=left;verticalAlign=top;spacingLeft=4;spacingRight=4;overflow=hidden;rotatable=0;points=[[0,0.5],[1,0.5]];portConstraint=eastwest;fontColor=#101E29;" parent="8I9pphBKhg92I5GMk5e_-85" vertex="1"><mxGeometry y="40" width="360" height="224" as="geometry"/></mxCell><mxCell id="8I9pphBKhg92I5GMk5e_-87" value="" style="line;strokeWidth=1;fillColor=none;align=left;verticalAlign=middle;spacingTop=-1;spacingLeft=3;spacingRight=3;rotatable=0;labelPosition=right;points=[];portConstraint=eastwest;fontColor=#101E29;strokeColor=#0A0406;" parent="8I9pphBKhg92I5GMk5e_-85" vertex="1"><mxGeometry y="264" width="360" height="8" as="geometry"/></mxCell><mxCell id="8I9pphBKhg92I5GMk5e_-88" value="TODO&#10;+log()&#10;+getId()&#10;+getPosition()&#10;+getImages()&#10;+getImageIndex()&#10;+setImageIndex()&#10;+getCurrentImage()         &#10;    &#10;&#10;" style="text;strokeColor=#0A0406;fillColor=none;align=left;verticalAlign=top;spacingLeft=4;spacingRight=4;overflow=hidden;rotatable=0;points=[[0,0.5],[1,0.5]];portConstraint=eastwest;fontColor=#101E29;" parent="8I9pphBKhg92I5GMk5e_-85" vertex="1"><mxGeometry y="272" width="360" height="152" as="geometry"/></mxCell><mxCell id="8I9pphBKhg92I5GMk5e_-89" value="Viewport" style="swimlane;fontStyle=1;align=center;verticalAlign=top;childLayout=stackLayout;horizontal=1;startSize=26;horizontalStack=0;resizeParent=1;resizeParentMax=0;resizeLast=0;collapsible=1;marginBottom=0;hachureGap=4;pointerEvents=0;sketch=0;fontColor=#0B151C;strokeColor=#FF6392;fillColor=#FFE45E;" parent="1" vertex="1"><mxGeometry x="850" y="302.04" width="230" height="250" as="geometry"/></mxCell><mxCell id="8I9pphBKhg92I5GMk5e_-90" value="-row: int&#10;-col: int&#10;-numRows: int&#10;-numCols: int&#10;" style="text;strokeColor=none;fillColor=none;align=left;verticalAlign=top;spacingLeft=4;spacingRight=4;overflow=hidden;rotatable=0;points=[[0,0.5],[1,0.5]];portConstraint=eastwest;fontColor=#0B151C;" parent="8I9pphBKhg92I5GMk5e_-89" vertex="1"><mxGeometry y="26" width="230" height="74" as="geometry"/></mxCell><mxCell id="8I9pphBKhg92I5GMk5e_-91" value="" style="line;strokeWidth=1;fillColor=none;align=left;verticalAlign=middle;spacingTop=-1;spacingLeft=3;spacingRight=3;rotatable=0;labelPosition=right;points=[];portConstraint=eastwest;fontColor=#0B151C;" parent="8I9pphBKhg92I5GMk5e_-89" vertex="1"><mxGeometry y="100" width="230" height="8" as="geometry"/></mxCell><mxCell id="8I9pphBKhg92I5GMk5e_-92" value="TODO&#10;+getRow()&#10;+getCol()&#10;+getNumRows()&#10;+getNumCols()&#10;+viewportToWorld()&#10;+worldToViewport()&#10;+shift()&#10;+contains()" style="text;strokeColor=none;fillColor=none;align=left;verticalAlign=top;spacingLeft=4;spacingRight=4;overflow=hidden;rotatable=0;points=[[0,0.5],[1,0.5]];portConstraint=eastwest;fontColor=#0B151C;" parent="8I9pphBKhg92I5GMk5e_-89" vertex="1"><mxGeometry y="108" width="230" height="142" as="geometry"/></mxCell><mxCell id="8I9pphBKhg92I5GMk5e_-96" value="Event" style="swimlane;fontStyle=1;align=center;verticalAlign=top;childLayout=stackLayout;horizontal=1;startSize=26;horizontalStack=0;resizeParent=1;resizeParentMax=0;resizeLast=0;collapsible=1;marginBottom=0;hachureGap=4;pointerEvents=0;sketch=0;fontColor=#5AA9E6;strokeColor=#FF6392;fillColor=#FFE45E;" parent="1" vertex="1"><mxGeometry x="1120" y="1080" width="165" height="180" as="geometry"/></mxCell><mxCell id="8I9pphBKhg92I5GMk5e_-97" value="-action: Action&#10;-time: long&#10;-entity: Entity" style="text;strokeColor=none;fillColor=none;align=left;verticalAlign=top;spacingLeft=4;spacingRight=4;overflow=hidden;rotatable=0;points=[[0,0.5],[1,0.5]];portConstraint=eastwest;" parent="8I9pphBKhg92I5GMk5e_-96" vertex="1"><mxGeometry y="26" width="165" height="64" as="geometry"/></mxCell><mxCell id="8I9pphBKhg92I5GMk5e_-98" value="" style="line;strokeWidth=1;fillColor=none;align=left;verticalAlign=middle;spacingTop=-1;spacingLeft=3;spacingRight=3;rotatable=0;labelPosition=right;points=[];portConstraint=eastwest;" parent="8I9pphBKhg92I5GMk5e_-96" vertex="1"><mxGeometry y="90" width="165" height="8" as="geometry"/></mxCell><mxCell id="8I9pphBKhg92I5GMk5e_-99" value="TODO&#10;+getAction()&#10;+getTime()&#10;+getEntity()&#10;" style="text;strokeColor=none;fillColor=none;align=left;verticalAlign=top;spacingLeft=4;spacingRight=4;overflow=hidden;rotatable=0;points=[[0,0.5],[1,0.5]];portConstraint=eastwest;" parent="8I9pphBKhg92I5GMk5e_-96" vertex="1"><mxGeometry y="98" width="165" height="82" as="geometry"/></mxCell><mxCell id="8I9pphBKhg92I5GMk5e_-104" value="Point" style="swimlane;fontStyle=1;align=center;verticalAlign=top;childLayout=stackLayout;horizontal=1;startSize=26;horizontalStack=0;resizeParent=1;resizeParentMax=0;resizeLast=0;collapsible=1;marginBottom=0;hachureGap=4;pointerEvents=0;sketch=0;fontColor=#101E29;strokeColor=#0A0406;fillColor=#FFE45E;" parent="1" vertex="1"><mxGeometry x="2975" y="70" width="160" height="220" as="geometry"/></mxCell><mxCell id="8I9pphBKhg92I5GMk5e_-105" value="-x: int&#10;-y: int" style="text;strokeColor=#0A0406;fillColor=none;align=left;verticalAlign=top;spacingLeft=4;spacingRight=4;overflow=hidden;rotatable=0;points=[[0,0.5],[1,0.5]];portConstraint=eastwest;fontColor=#101E29;" parent="8I9pphBKhg92I5GMk5e_-104" vertex="1"><mxGeometry y="26" width="160" height="54" as="geometry"/></mxCell><mxCell id="8I9pphBKhg92I5GMk5e_-106" value="" style="line;strokeWidth=1;fillColor=none;align=left;verticalAlign=middle;spacingTop=-1;spacingLeft=3;spacingRight=3;rotatable=0;labelPosition=right;points=[];portConstraint=eastwest;fontColor=#101E29;strokeColor=#0A0406;" parent="8I9pphBKhg92I5GMk5e_-104" vertex="1"><mxGeometry y="80" width="160" height="8" as="geometry"/></mxCell><mxCell id="8I9pphBKhg92I5GMk5e_-107" value="+toString(): String&#10;+equals(): boolean&#10;+getX()&#10;+getY()&#10;+hashCode()&#10;+distanceSquared()&#10;+nearestEntity()&#10;+adjacent()" style="text;strokeColor=#0A0406;fillColor=none;align=left;verticalAlign=top;spacingLeft=4;spacingRight=4;overflow=hidden;rotatable=0;points=[[0,0.5],[1,0.5]];portConstraint=eastwest;fontColor=#101E29;" parent="8I9pphBKhg92I5GMk5e_-104" vertex="1"><mxGeometry y="88" width="160" height="132" as="geometry"/></mxCell><mxCell id="8I9pphBKhg92I5GMk5e_-108" value="Action&#10;&lt;&lt;Interface&gt;&gt;" style="swimlane;fontStyle=1;align=center;verticalAlign=top;childLayout=stackLayout;horizontal=1;startSize=50;horizontalStack=0;resizeParent=1;resizeParentMax=0;resizeLast=0;collapsible=1;marginBottom=0;hachureGap=4;pointerEvents=0;sketch=0;fontColor=#101E29;strokeColor=#0A0406;fillColor=#FFE45E;" parent="1" vertex="1"><mxGeometry x="1108" y="1444" width="190" height="138" as="geometry"/></mxCell><mxCell id="8I9pphBKhg92I5GMk5e_-110" value="" style="line;strokeWidth=1;fillColor=none;align=left;verticalAlign=middle;spacingTop=-1;spacingLeft=3;spacingRight=3;rotatable=0;labelPosition=right;points=[];portConstraint=eastwest;fontColor=#101E29;strokeColor=#0A0406;" parent="8I9pphBKhg92I5GMk5e_-108" vertex="1"><mxGeometry y="50" width="190" height="8" as="geometry"/></mxCell><mxCell id="8I9pphBKhg92I5GMk5e_-111" value="TODO&#10;+executeAction()" style="text;strokeColor=#0A0406;fillColor=none;align=left;verticalAlign=top;spacingLeft=4;spacingRight=4;overflow=hidden;rotatable=0;points=[[0,0.5],[1,0.5]];portConstraint=eastwest;fontColor=#101E29;" parent="8I9pphBKhg92I5GMk5e_-108" vertex="1"><mxGeometry y="58" width="190" height="80" as="geometry"/></mxCell><mxCell id="WU29prcdPVei9ouTIJy_-15" value="Activity" style="swimlane;fontStyle=1;align=center;verticalAlign=top;childLayout=stackLayout;horizontal=1;startSize=26;horizontalStack=0;resizeParent=1;resizeParentMax=0;resizeLast=0;collapsible=1;marginBottom=0;hachureGap=4;pointerEvents=0;sketch=0;fontColor=#101E29;strokeColor=#0A0406;fillColor=#FFE45E;" parent="1" vertex="1"><mxGeometry x="988" y="1754" width="160" height="240" as="geometry"/></mxCell><mxCell id="WU29prcdPVei9ouTIJy_-16" value="-world: WorldModel&#10;-imageStore: ImageStore&#10;-entity&#10;" style="text;strokeColor=#0A0406;fillColor=none;align=left;verticalAlign=top;spacingLeft=4;spacingRight=4;overflow=hidden;rotatable=0;points=[[0,0.5],[1,0.5]];portConstraint=eastwest;fontColor=#101E29;" parent="WU29prcdPVei9ouTIJy_-15" vertex="1"><mxGeometry y="26" width="160" height="124" as="geometry"/></mxCell><mxCell id="WU29prcdPVei9ouTIJy_-17" value="" style="line;strokeWidth=1;fillColor=none;align=left;verticalAlign=middle;spacingTop=-1;spacingLeft=3;spacingRight=3;rotatable=0;labelPosition=right;points=[];portConstraint=eastwest;fontColor=#101E29;strokeColor=#0A0406;" parent="WU29prcdPVei9ouTIJy_-15" vertex="1"><mxGeometry y="150" width="160" height="8" as="geometry"/></mxCell><mxCell id="WU29prcdPVei9ouTIJy_-18" value="TODO&#10;+executeAction()&#10;" style="text;strokeColor=#0A0406;fillColor=none;align=left;verticalAlign=top;spacingLeft=4;spacingRight=4;overflow=hidden;rotatable=0;points=[[0,0.5],[1,0.5]];portConstraint=eastwest;fontColor=#101E29;" parent="WU29prcdPVei9ouTIJy_-15" vertex="1"><mxGeometry y="158" width="160" height="82" as="geometry"/></mxCell><mxCell id="WU29prcdPVei9ouTIJy_-19" value="Animation" style="swimlane;fontStyle=1;align=center;verticalAlign=top;childLayout=stackLayout;horizontal=1;startSize=26;horizontalStack=0;resizeParent=1;resizeParentMax=0;resizeLast=0;collapsible=1;marginBottom=0;hachureGap=4;pointerEvents=0;sketch=0;fontColor=#101E29;strokeColor=#0A0406;fillColor=#FFE45E;" parent="1" vertex="1"><mxGeometry x="1218" y="1754" width="160" height="240" as="geometry"/></mxCell><mxCell id="WU29prcdPVei9ouTIJy_-20" value="-repeatCount: int&#10;-entity" style="text;strokeColor=#0A0406;fillColor=none;align=left;verticalAlign=top;spacingLeft=4;spacingRight=4;overflow=hidden;rotatable=0;points=[[0,0.5],[1,0.5]];portConstraint=eastwest;fontColor=#101E29;" parent="WU29prcdPVei9ouTIJy_-19" vertex="1"><mxGeometry y="26" width="160" height="124" as="geometry"/></mxCell><mxCell id="WU29prcdPVei9ouTIJy_-21" value="" style="line;strokeWidth=1;fillColor=none;align=left;verticalAlign=middle;spacingTop=-1;spacingLeft=3;spacingRight=3;rotatable=0;labelPosition=right;points=[];portConstraint=eastwest;fontColor=#101E29;strokeColor=#0A0406;" parent="WU29prcdPVei9ouTIJy_-19" vertex="1"><mxGeometry y="150" width="160" height="8" as="geometry"/></mxCell><mxCell id="WU29prcdPVei9ouTIJy_-22" value="TODO&#10;+executeAction()&#10;" style="text;strokeColor=#0A0406;fillColor=none;align=left;verticalAlign=top;spacingLeft=4;spacingRight=4;overflow=hidden;rotatable=0;points=[[0,0.5],[1,0.5]];portConstraint=eastwest;fontColor=#101E29;" parent="WU29prcdPVei9ouTIJy_-19" vertex="1"><mxGeometry y="158" width="160" height="82" as="geometry"/></mxCell><mxCell id="WU29prcdPVei9ouTIJy_-23" value="House" style="swimlane;fontStyle=1;align=center;verticalAlign=top;childLayout=stackLayout;horizontal=1;startSize=26;horizontalStack=0;resizeParent=1;resizeParentMax=0;resizeLast=0;collapsible=1;marginBottom=0;hachureGap=4;pointerEvents=0;sketch=0;fontColor=#101E29;strokeColor=#0A0406;fillColor=#FFE45E;" parent="1" vertex="1"><mxGeometry x="2630" y="1018" width="170" height="80" as="geometry"/></mxCell><mxCell id="WU29prcdPVei9ouTIJy_-25" value="" style="line;strokeWidth=1;fillColor=none;align=left;verticalAlign=middle;spacingTop=-1;spacingLeft=3;spacingRight=3;rotatable=0;labelPosition=right;points=[];portConstraint=eastwest;fontColor=#101E29;strokeColor=#0A0406;" parent="WU29prcdPVei9ouTIJy_-23" vertex="1"><mxGeometry y="26" width="170" height="8" as="geometry"/></mxCell><mxCell id="WU29prcdPVei9ouTIJy_-26" value="+House" style="text;strokeColor=#0A0406;fillColor=none;align=left;verticalAlign=top;spacingLeft=4;spacingRight=4;overflow=hidden;rotatable=0;points=[[0,0.5],[1,0.5]];portConstraint=eastwest;fontColor=#101E29;" parent="WU29prcdPVei9ouTIJy_-23" vertex="1"><mxGeometry y="34" width="170" height="46" as="geometry"/></mxCell><mxCell id="WU29prcdPVei9ouTIJy_-27" value="DudeFull" style="swimlane;fontStyle=1;align=center;verticalAlign=top;childLayout=stackLayout;horizontal=1;startSize=26;horizontalStack=0;resizeParent=1;resizeParentMax=0;resizeLast=0;collapsible=1;marginBottom=0;hachureGap=4;pointerEvents=0;sketch=0;fontColor=#101E29;strokeColor=#0A0406;fillColor=#FFE45E;" parent="1" vertex="1"><mxGeometry x="1434" y="1126" width="240" height="131" as="geometry"/></mxCell><mxCell id="WU29prcdPVei9ouTIJy_-28" value="&#10;" style="text;strokeColor=#0A0406;fillColor=none;align=left;verticalAlign=top;spacingLeft=4;spacingRight=4;overflow=hidden;rotatable=0;points=[[0,0.5],[1,0.5]];portConstraint=eastwest;fontColor=#101E29;" parent="WU29prcdPVei9ouTIJy_-27" vertex="1"><mxGeometry y="26" width="240" height="25" as="geometry"/></mxCell><mxCell id="WU29prcdPVei9ouTIJy_-29" value="" style="line;strokeWidth=1;fillColor=none;align=left;verticalAlign=middle;spacingTop=-1;spacingLeft=3;spacingRight=3;rotatable=0;labelPosition=right;points=[];portConstraint=eastwest;fontColor=#101E29;strokeColor=#0A0406;" parent="WU29prcdPVei9ouTIJy_-27" vertex="1"><mxGeometry y="51" width="240" height="8" as="geometry"/></mxCell><mxCell id="WU29prcdPVei9ouTIJy_-30" value="TODO&#10;+_executeActivity()&#10;+transform()                   &#10;+_moveTo(): boolean                                   &#10;    &#10;&#10;" style="text;strokeColor=#0A0406;fillColor=none;align=left;verticalAlign=top;spacingLeft=4;spacingRight=4;overflow=hidden;rotatable=0;points=[[0,0.5],[1,0.5]];portConstraint=eastwest;fontColor=#101E29;" parent="WU29prcdPVei9ouTIJy_-27" vertex="1"><mxGeometry y="59" width="240" height="72" as="geometry"/></mxCell><mxCell id="WU29prcdPVei9ouTIJy_-31" value="Movable&#10;&lt;&lt;abstract&gt;&gt;&#10;" style="swimlane;fontStyle=1;align=center;verticalAlign=top;childLayout=stackLayout;horizontal=1;startSize=46;horizontalStack=0;resizeParent=1;resizeParentMax=0;resizeLast=0;collapsible=1;marginBottom=0;hachureGap=4;pointerEvents=0;sketch=0;fontColor=#101E29;strokeColor=#0A0406;fillColor=#FFE45E;" parent="1" vertex="1"><mxGeometry x="2128" y="694" width="260" height="250" as="geometry"/></mxCell><mxCell id="WU29prcdPVei9ouTIJy_-68" value="-actionPeriod: int&#10;-animationPeriod: int&#10;" style="text;strokeColor=#0A0406;fillColor=none;align=left;verticalAlign=top;spacingLeft=4;spacingRight=4;overflow=hidden;rotatable=0;points=[[0,0.5],[1,0.5]];portConstraint=eastwest;fontColor=#101E29;" parent="WU29prcdPVei9ouTIJy_-31" vertex="1"><mxGeometry y="46" width="260" height="54" as="geometry"/></mxCell><mxCell id="WU29prcdPVei9ouTIJy_-33" value="" style="line;strokeWidth=1;fillColor=none;align=left;verticalAlign=middle;spacingTop=-1;spacingLeft=3;spacingRight=3;rotatable=0;labelPosition=right;points=[];portConstraint=eastwest;fontColor=#101E29;strokeColor=#0A0406;" parent="WU29prcdPVei9ouTIJy_-31" vertex="1"><mxGeometry y="100" width="260" height="20" as="geometry"/></mxCell><mxCell id="WU29prcdPVei9ouTIJy_-34" value="+moveTo()&#10;+executeActivity&#10;+_executeActivity() &lt;&lt;abstract&gt;&gt;&#10;+getAnimationPeriod()&#10;+getActionPeriod()&#10;&#10;" style="text;strokeColor=#0A0406;fillColor=none;align=left;verticalAlign=top;spacingLeft=4;spacingRight=4;overflow=hidden;rotatable=0;points=[[0,0.5],[1,0.5]];portConstraint=eastwest;fontColor=#101E29;" parent="WU29prcdPVei9ouTIJy_-31" vertex="1"><mxGeometry y="120" width="260" height="130" as="geometry"/></mxCell><mxCell id="WU29prcdPVei9ouTIJy_-35" value="DudeNotFull" style="swimlane;fontStyle=1;align=center;verticalAlign=top;childLayout=stackLayout;horizontal=1;startSize=26;horizontalStack=0;resizeParent=1;resizeParentMax=0;resizeLast=0;collapsible=1;marginBottom=0;hachureGap=4;pointerEvents=0;sketch=0;fontColor=#101E29;strokeColor=#0A0406;fillColor=#FFE45E;" parent="1" vertex="1"><mxGeometry x="1699" y="1126" width="240" height="180" as="geometry"/></mxCell><mxCell id="WU29prcdPVei9ouTIJy_-36" value="-resourceCount: int&#10;&#10;" style="text;strokeColor=#0A0406;fillColor=none;align=left;verticalAlign=top;spacingLeft=4;spacingRight=4;overflow=hidden;rotatable=0;points=[[0,0.5],[1,0.5]];portConstraint=eastwest;fontColor=#101E29;" parent="WU29prcdPVei9ouTIJy_-35" vertex="1"><mxGeometry y="26" width="240" height="74" as="geometry"/></mxCell><mxCell id="WU29prcdPVei9ouTIJy_-37" value="" style="line;strokeWidth=1;fillColor=none;align=left;verticalAlign=middle;spacingTop=-1;spacingLeft=3;spacingRight=3;rotatable=0;labelPosition=right;points=[];portConstraint=eastwest;fontColor=#101E29;strokeColor=#0A0406;" parent="WU29prcdPVei9ouTIJy_-35" vertex="1"><mxGeometry y="100" width="240" height="8" as="geometry"/></mxCell><mxCell id="WU29prcdPVei9ouTIJy_-38" value="TODO&#10;+_executeActivity()&#10;+transform()                   &#10;+_moveTo(): boolean                                   &#10;    &#10;&#10;" style="text;strokeColor=#0A0406;fillColor=none;align=left;verticalAlign=top;spacingLeft=4;spacingRight=4;overflow=hidden;rotatable=0;points=[[0,0.5],[1,0.5]];portConstraint=eastwest;fontColor=#101E29;" parent="WU29prcdPVei9ouTIJy_-35" vertex="1"><mxGeometry y="108" width="240" height="72" as="geometry"/></mxCell><mxCell id="WU29prcdPVei9ouTIJy_-42" value="Fairy" style="swimlane;fontStyle=1;align=center;verticalAlign=top;childLayout=stackLayout;horizontal=1;startSize=26;horizontalStack=0;resizeParent=1;resizeParentMax=0;resizeLast=0;collapsible=1;marginBottom=0;hachureGap=4;pointerEvents=0;sketch=0;fontColor=#101E29;strokeColor=#0A0406;fillColor=#FFE45E;" parent="1" vertex="1"><mxGeometry x="1994" y="1126" width="240" height="106" as="geometry"/></mxCell><mxCell id="WU29prcdPVei9ouTIJy_-44" value="" style="line;strokeWidth=1;fillColor=none;align=left;verticalAlign=middle;spacingTop=-1;spacingLeft=3;spacingRight=3;rotatable=0;labelPosition=right;points=[];portConstraint=eastwest;fontColor=#101E29;strokeColor=#0A0406;" parent="WU29prcdPVei9ouTIJy_-42" vertex="1"><mxGeometry y="26" width="240" height="8" as="geometry"/></mxCell><mxCell id="WU29prcdPVei9ouTIJy_-45" value="TODO&#10;+_executeActivity()&#10;+_moveTo(): boolean&#10;+nextPosition()                                   &#10;    &#10;&#10;" style="text;strokeColor=#0A0406;fillColor=none;align=left;verticalAlign=top;spacingLeft=4;spacingRight=4;overflow=hidden;rotatable=0;points=[[0,0.5],[1,0.5]];portConstraint=eastwest;fontColor=#101E29;" parent="WU29prcdPVei9ouTIJy_-42" vertex="1"><mxGeometry y="34" width="240" height="72" as="geometry"/></mxCell><mxCell id="WU29prcdPVei9ouTIJy_-46" value="Stump" style="swimlane;fontStyle=1;align=center;verticalAlign=top;childLayout=stackLayout;horizontal=1;startSize=26;horizontalStack=0;resizeParent=1;resizeParentMax=0;resizeLast=0;collapsible=1;marginBottom=0;hachureGap=4;pointerEvents=0;sketch=0;fontColor=#101E29;strokeColor=#0A0406;fillColor=#FFE45E;" parent="1" vertex="1"><mxGeometry x="2850" y="1018" width="170" height="80" as="geometry"/></mxCell><mxCell id="WU29prcdPVei9ouTIJy_-47" value="" style="line;strokeWidth=1;fillColor=none;align=left;verticalAlign=middle;spacingTop=-1;spacingLeft=3;spacingRight=3;rotatable=0;labelPosition=right;points=[];portConstraint=eastwest;fontColor=#101E29;strokeColor=#0A0406;" parent="WU29prcdPVei9ouTIJy_-46" vertex="1"><mxGeometry y="26" width="170" height="8" as="geometry"/></mxCell><mxCell id="WU29prcdPVei9ouTIJy_-48" value="+Stump" style="text;strokeColor=#0A0406;fillColor=none;align=left;verticalAlign=top;spacingLeft=4;spacingRight=4;overflow=hidden;rotatable=0;points=[[0,0.5],[1,0.5]];portConstraint=eastwest;fontColor=#101E29;" parent="WU29prcdPVei9ouTIJy_-46" vertex="1"><mxGeometry y="34" width="170" height="46" as="geometry"/></mxCell><mxCell id="WU29prcdPVei9ouTIJy_-52" value="Sapling" style="swimlane;fontStyle=1;align=center;verticalAlign=top;childLayout=stackLayout;horizontal=1;startSize=26;horizontalStack=0;resizeParent=1;resizeParentMax=0;resizeLast=0;collapsible=1;marginBottom=0;hachureGap=4;pointerEvents=0;sketch=0;fontColor=#101E29;strokeColor=#0A0406;fillColor=#FFE45E;" parent="1" vertex="1"><mxGeometry x="3290" y="1018" width="370" height="210" as="geometry"/></mxCell><mxCell id="WU29prcdPVei9ouTIJy_-53" value="++ SAPLING_ACTION_ANIMATION_PERIOD:  int     &lt;&lt;static&gt;&gt;&#10;-health&#10;-healthLimit&#10;&#10;" style="text;strokeColor=#0A0406;fillColor=none;align=left;verticalAlign=top;spacingLeft=4;spacingRight=4;overflow=hidden;rotatable=0;points=[[0,0.5],[1,0.5]];portConstraint=eastwest;fontColor=#101E29;" parent="WU29prcdPVei9ouTIJy_-52" vertex="1"><mxGeometry y="26" width="370" height="74" as="geometry"/></mxCell><mxCell id="WU29prcdPVei9ouTIJy_-54" value="" style="line;strokeWidth=1;fillColor=none;align=left;verticalAlign=middle;spacingTop=-1;spacingLeft=3;spacingRight=3;rotatable=0;labelPosition=right;points=[];portConstraint=eastwest;fontColor=#101E29;strokeColor=#0A0406;" parent="WU29prcdPVei9ouTIJy_-52" vertex="1"><mxGeometry y="100" width="370" height="8" as="geometry"/></mxCell><mxCell id="WU29prcdPVei9ouTIJy_-55" value="TODO&#10;+executeActivity()&#10;+transform()                   &#10;+getHealth&#10;+setHealth                                  &#10;    &#10;&#10;" style="text;strokeColor=#0A0406;fillColor=none;align=left;verticalAlign=top;spacingLeft=4;spacingRight=4;overflow=hidden;rotatable=0;points=[[0,0.5],[1,0.5]];portConstraint=eastwest;fontColor=#101E29;" parent="WU29prcdPVei9ouTIJy_-52" vertex="1"><mxGeometry y="108" width="370" height="102" as="geometry"/></mxCell><mxCell id="WU29prcdPVei9ouTIJy_-60" value="Tree" style="swimlane;fontStyle=1;align=center;verticalAlign=top;childLayout=stackLayout;horizontal=1;startSize=26;horizontalStack=0;resizeParent=1;resizeParentMax=0;resizeLast=0;collapsible=1;marginBottom=0;hachureGap=4;pointerEvents=0;sketch=0;fontColor=#101E29;strokeColor=#0A0406;fillColor=#FFE45E;" parent="1" vertex="1"><mxGeometry x="3725" y="1018" width="240" height="230" as="geometry"/></mxCell><mxCell id="WU29prcdPVei9ouTIJy_-61" value="-health: int&#10;" style="text;strokeColor=#0A0406;fillColor=none;align=left;verticalAlign=top;spacingLeft=4;spacingRight=4;overflow=hidden;rotatable=0;points=[[0,0.5],[1,0.5]];portConstraint=eastwest;fontColor=#101E29;" parent="WU29prcdPVei9ouTIJy_-60" vertex="1"><mxGeometry y="26" width="240" height="74" as="geometry"/></mxCell><mxCell id="WU29prcdPVei9ouTIJy_-62" value="" style="line;strokeWidth=1;fillColor=none;align=left;verticalAlign=middle;spacingTop=-1;spacingLeft=3;spacingRight=3;rotatable=0;labelPosition=right;points=[];portConstraint=eastwest;fontColor=#101E29;strokeColor=#0A0406;" parent="WU29prcdPVei9ouTIJy_-60" vertex="1"><mxGeometry y="100" width="240" height="8" as="geometry"/></mxCell><mxCell id="WU29prcdPVei9ouTIJy_-63" value="TODO&#10;+_transform()                   &#10;+getHealth&#10;+setHealth                                &#10;    &#10;&#10;" style="text;strokeColor=#0A0406;fillColor=none;align=left;verticalAlign=top;spacingLeft=4;spacingRight=4;overflow=hidden;rotatable=0;points=[[0,0.5],[1,0.5]];portConstraint=eastwest;fontColor=#101E29;" parent="WU29prcdPVei9ouTIJy_-60" vertex="1"><mxGeometry y="108" width="240" height="122" as="geometry"/></mxCell><mxCell id="WU29prcdPVei9ouTIJy_-69" value="Transformable&#10;&lt;&lt;abstract&gt;&gt;" style="swimlane;fontStyle=1;align=center;verticalAlign=top;childLayout=stackLayout;horizontal=1;startSize=40;horizontalStack=0;resizeParent=1;resizeParentMax=0;resizeLast=0;collapsible=1;marginBottom=0;hachureGap=4;pointerEvents=0;sketch=0;fontColor=#101E29;strokeColor=#0A0406;fillColor=#FFE45E;" parent="1" vertex="1"><mxGeometry x="1787" y="852" width="240" height="194" as="geometry"/></mxCell><mxCell id="WU29prcdPVei9ouTIJy_-70" value="-resourceLimit: int" style="text;strokeColor=#0A0406;fillColor=none;align=left;verticalAlign=top;spacingLeft=4;spacingRight=4;overflow=hidden;rotatable=0;points=[[0,0.5],[1,0.5]];portConstraint=eastwest;fontColor=#101E29;" parent="WU29prcdPVei9ouTIJy_-69" vertex="1"><mxGeometry y="40" width="240" height="74" as="geometry"/></mxCell><mxCell id="WU29prcdPVei9ouTIJy_-71" value="" style="line;strokeWidth=1;fillColor=none;align=left;verticalAlign=middle;spacingTop=-1;spacingLeft=3;spacingRight=3;rotatable=0;labelPosition=right;points=[];portConstraint=eastwest;fontColor=#101E29;strokeColor=#0A0406;" parent="WU29prcdPVei9ouTIJy_-69" vertex="1"><mxGeometry y="114" width="240" height="8" as="geometry"/></mxCell><mxCell id="WU29prcdPVei9ouTIJy_-72" value="+transform() &#10;+getResourceLimit&#10;+nextPosition()                  &#10;    &#10;&#10;" style="text;strokeColor=#0A0406;fillColor=none;align=left;verticalAlign=top;spacingLeft=4;spacingRight=4;overflow=hidden;rotatable=0;points=[[0,0.5],[1,0.5]];portConstraint=eastwest;fontColor=#101E29;" parent="WU29prcdPVei9ouTIJy_-69" vertex="1"><mxGeometry y="122" width="240" height="72" as="geometry"/></mxCell><mxCell id="WU29prcdPVei9ouTIJy_-73" value="Unmovable&#10;&lt;&lt;abstract&gt;&gt;" style="swimlane;fontStyle=1;align=center;verticalAlign=top;childLayout=stackLayout;horizontal=1;startSize=40;horizontalStack=0;resizeParent=1;resizeParentMax=0;resizeLast=0;collapsible=1;marginBottom=0;hachureGap=4;pointerEvents=0;sketch=0;fontColor=#101E29;strokeColor=#0A0406;fillColor=#FFE45E;" parent="1" vertex="1"><mxGeometry x="2935" y="726" width="240" height="257" as="geometry"/></mxCell><mxCell id="WU29prcdPVei9ouTIJy_-74" value="-actionPeriod: int&#10;-animationPeriod: int&#10;" style="text;strokeColor=#0A0406;fillColor=none;align=left;verticalAlign=top;spacingLeft=4;spacingRight=4;overflow=hidden;rotatable=0;points=[[0,0.5],[1,0.5]];portConstraint=eastwest;fontColor=#101E29;" parent="WU29prcdPVei9ouTIJy_-73" vertex="1"><mxGeometry y="40" width="240" height="74" as="geometry"/></mxCell><mxCell id="WU29prcdPVei9ouTIJy_-75" value="" style="line;strokeWidth=1;fillColor=none;align=left;verticalAlign=middle;spacingTop=-1;spacingLeft=3;spacingRight=3;rotatable=0;labelPosition=right;points=[];portConstraint=eastwest;fontColor=#101E29;strokeColor=#0A0406;" parent="WU29prcdPVei9ouTIJy_-73" vertex="1"><mxGeometry y="114" width="240" height="20" as="geometry"/></mxCell><mxCell id="WU29prcdPVei9ouTIJy_-76" value="+executeActivity()&#10;+transform()&#10;+transformPlant()&#10;+getActionPeriod()&#10;+getAnimationPeriod()&#10;+setHealth &lt;&lt;abstract&gt;&gt;&#10;+getHealth &lt;&lt;abstract&gt;&gt;&#10;&#10;" style="text;strokeColor=#0A0406;fillColor=none;align=left;verticalAlign=top;spacingLeft=4;spacingRight=4;overflow=hidden;rotatable=0;points=[[0,0.5],[1,0.5]];portConstraint=eastwest;fontColor=#101E29;" parent="WU29prcdPVei9ouTIJy_-73" vertex="1"><mxGeometry y="134" width="240" height="123" as="geometry"/></mxCell><mxCell id="WU29prcdPVei9ouTIJy_-77" value="Obstacle" style="swimlane;fontStyle=1;align=center;verticalAlign=top;childLayout=stackLayout;horizontal=1;startSize=26;horizontalStack=0;resizeParent=1;resizeParentMax=0;resizeLast=0;collapsible=1;marginBottom=0;hachureGap=4;pointerEvents=0;sketch=0;fontColor=#101E29;strokeColor=#0A0406;fillColor=#FFE45E;" parent="1" vertex="1"><mxGeometry x="3050" y="1028" width="150" height="180" as="geometry"/></mxCell><mxCell id="WU29prcdPVei9ouTIJy_-78" value="-animationPeriod" style="text;strokeColor=#0A0406;fillColor=none;align=left;verticalAlign=top;spacingLeft=4;spacingRight=4;overflow=hidden;rotatable=0;points=[[0,0.5],[1,0.5]];portConstraint=eastwest;fontColor=#101E29;" parent="WU29prcdPVei9ouTIJy_-77" vertex="1"><mxGeometry y="26" width="150" height="74" as="geometry"/></mxCell><mxCell id="WU29prcdPVei9ouTIJy_-79" value="" style="line;strokeWidth=1;fillColor=none;align=left;verticalAlign=middle;spacingTop=-1;spacingLeft=3;spacingRight=3;rotatable=0;labelPosition=right;points=[];portConstraint=eastwest;fontColor=#101E29;strokeColor=#0A0406;" parent="WU29prcdPVei9ouTIJy_-77" vertex="1"><mxGeometry y="100" width="150" height="8" as="geometry"/></mxCell><mxCell id="WU29prcdPVei9ouTIJy_-80" value="+Obstacle" style="text;strokeColor=#0A0406;fillColor=none;align=left;verticalAlign=top;spacingLeft=4;spacingRight=4;overflow=hidden;rotatable=0;points=[[0,0.5],[1,0.5]];portConstraint=eastwest;fontColor=#101E29;" parent="WU29prcdPVei9ouTIJy_-77" vertex="1"><mxGeometry y="108" width="150" height="72" as="geometry"/></mxCell><mxCell id="WU29prcdPVei9ouTIJy_-82" value="HasActivity&#10;&lt;&lt;Interface&gt;&gt;" style="swimlane;fontStyle=1;align=center;verticalAlign=top;childLayout=stackLayout;horizontal=1;startSize=46;horizontalStack=0;resizeParent=1;resizeParentMax=0;resizeLast=0;collapsible=1;marginBottom=0;hachureGap=4;pointerEvents=0;sketch=0;fontColor=#101E29;strokeColor=#0A0406;fillColor=#FFE45E;" parent="1" vertex="1"><mxGeometry x="2490" y="480" width="240" height="116" as="geometry"/></mxCell><mxCell id="WU29prcdPVei9ouTIJy_-85" value="+scheduleAction &lt;&lt;default&gt;&gt;&#10;+executeActivity &lt;&lt;abstract&gt;&gt;&#10;+getActionPeriod &lt;&lt;abstract&gt;&gt;" style="text;strokeColor=#0A0406;fillColor=none;align=left;verticalAlign=top;spacingLeft=4;spacingRight=4;overflow=hidden;rotatable=0;points=[[0,0.5],[1,0.5]];portConstraint=eastwest;fontColor=#101E29;" parent="WU29prcdPVei9ouTIJy_-82" vertex="1"><mxGeometry y="46" width="240" height="70" as="geometry"/></mxCell><mxCell id="WU29prcdPVei9ouTIJy_-89" value="HasAnimation&#10;&lt;&lt;Interface&gt;&gt;" style="swimlane;fontStyle=1;align=center;verticalAlign=top;childLayout=stackLayout;horizontal=1;startSize=46;horizontalStack=0;resizeParent=1;resizeParentMax=0;resizeLast=0;collapsible=1;marginBottom=0;hachureGap=4;pointerEvents=0;sketch=0;fontColor=#101E29;strokeColor=#0A0406;fillColor=#FFE45E;" parent="1" vertex="1"><mxGeometry x="2900" y="480" width="240" height="133" as="geometry"/></mxCell><mxCell id="WU29prcdPVei9ouTIJy_-91" value="+scheduleAction &lt;&lt;default&gt;&gt;&#10;+nextImage &lt;&lt;default&gt;&gt;&#10;+getImageIndex &lt;&lt;abstract&gt;&gt;&#10;+setImageIndex &lt;&lt;abstract&gt;&gt;&#10;+getAnimationPeriod &lt;&lt;abstract&gt;&gt;" style="text;strokeColor=#0A0406;fillColor=none;align=left;verticalAlign=top;spacingLeft=4;spacingRight=4;overflow=hidden;rotatable=0;points=[[0,0.5],[1,0.5]];portConstraint=eastwest;labelBorderColor=#000000;fontColor=#101E29;" parent="WU29prcdPVei9ouTIJy_-89" vertex="1"><mxGeometry y="46" width="240" height="87" as="geometry"/></mxCell><mxCell id="WU29prcdPVei9ouTIJy_-96" value="" style="endArrow=classic;html=1;rounded=0;entryX=0.738;entryY=1.038;entryDx=0;entryDy=0;entryPerimeter=0;exitX=0.5;exitY=0;exitDx=0;exitDy=0;fontColor=#101E29;strokeColor=#0A0406;" parent="1" source="WU29prcdPVei9ouTIJy_-35" target="WU29prcdPVei9ouTIJy_-72" edge="1"><mxGeometry width="50" height="50" relative="1" as="geometry"><mxPoint x="2500" y="990" as="sourcePoint"/><mxPoint x="2550" y="940" as="targetPoint"/></mxGeometry></mxCell><mxCell id="WU29prcdPVei9ouTIJy_-97" value="" style="endArrow=classic;html=1;rounded=0;entryX=0.369;entryY=1.011;entryDx=0;entryDy=0;entryPerimeter=0;fontColor=#101E29;strokeColor=#0A0406;exitX=0.5;exitY=0;exitDx=0;exitDy=0;" parent="1" target="WU29prcdPVei9ouTIJy_-72" edge="1" source="WU29prcdPVei9ouTIJy_-27"><mxGeometry width="50" height="50" relative="1" as="geometry"><mxPoint x="1870" y="1018" as="sourcePoint"/><mxPoint x="1920" y="968" as="targetPoint"/></mxGeometry></mxCell><mxCell id="WU29prcdPVei9ouTIJy_-98" value="" style="endArrow=classic;html=1;rounded=0;fontColor=#101E29;strokeColor=#0A0406;entryX=0;entryY=0.5;entryDx=0;entryDy=0;exitX=0.5;exitY=0;exitDx=0;exitDy=0;" parent="1" target="WU29prcdPVei9ouTIJy_-68" edge="1" source="WU29prcdPVei9ouTIJy_-69"><mxGeometry width="50" height="50" relative="1" as="geometry"><mxPoint x="2010" y="760" as="sourcePoint"/><mxPoint x="2120" y="590" as="targetPoint"/></mxGeometry></mxCell><mxCell id="WU29prcdPVei9ouTIJy_-99" value="" style="endArrow=classic;html=1;rounded=0;entryX=0.61;entryY=1.003;entryDx=0;entryDy=0;entryPerimeter=0;exitX=0.5;exitY=0;exitDx=0;exitDy=0;fontColor=#101E29;strokeColor=#0A0406;" parent="1" source="WU29prcdPVei9ouTIJy_-42" target="WU29prcdPVei9ouTIJy_-34" edge="1"><mxGeometry width="50" height="50" relative="1" as="geometry"><mxPoint x="2500" y="990" as="sourcePoint"/><mxPoint x="2550" y="940" as="targetPoint"/></mxGeometry></mxCell><mxCell id="WU29prcdPVei9ouTIJy_-100" value="" style="endArrow=classic;html=1;rounded=0;entryX=0.289;entryY=1.018;entryDx=0;entryDy=0;entryPerimeter=0;fontColor=#101E29;strokeColor=#0A0406;" parent="1" target="WU29prcdPVei9ouTIJy_-76" edge="1"><mxGeometry width="50" height="50" relative="1" as="geometry"><mxPoint x="3480" y="1018" as="sourcePoint"/><mxPoint x="3530" y="968" as="targetPoint"/></mxGeometry></mxCell><mxCell id="WU29prcdPVei9ouTIJy_-101" value="" style="endArrow=classic;html=1;rounded=0;entryX=0.575;entryY=1.044;entryDx=0;entryDy=0;entryPerimeter=0;fontColor=#101E29;strokeColor=#0A0406;" parent="1" target="WU29prcdPVei9ouTIJy_-76" edge="1"><mxGeometry width="50" height="50" relative="1" as="geometry"><mxPoint x="3850" y="1010" as="sourcePoint"/><mxPoint x="3660" y="800" as="targetPoint"/></mxGeometry></mxCell><mxCell id="WU29prcdPVei9ouTIJy_-103" value="" style="endArrow=classic;html=1;rounded=0;entryX=0.485;entryY=1.015;entryDx=0;entryDy=0;entryPerimeter=0;exitX=0.771;exitY=-0.003;exitDx=0;exitDy=0;exitPerimeter=0;fontColor=#101E29;strokeColor=#0A0406;" parent="1" source="WU29prcdPVei9ouTIJy_-31" target="5" edge="1"><mxGeometry width="50" height="50" relative="1" as="geometry"><mxPoint x="2270" y="550" as="sourcePoint"/><mxPoint x="2320" y="500" as="targetPoint"/></mxGeometry></mxCell><mxCell id="WU29prcdPVei9ouTIJy_-104" value="" style="endArrow=classic;html=1;rounded=0;entryX=0.918;entryY=1.011;entryDx=0;entryDy=0;entryPerimeter=0;fontColor=#101E29;strokeColor=#0A0406;" parent="1" target="8I9pphBKhg92I5GMk5e_-88" edge="1"><mxGeometry width="50" height="50" relative="1" as="geometry"><mxPoint x="2740" y="1010" as="sourcePoint"/><mxPoint x="2810" y="730" as="targetPoint"/></mxGeometry></mxCell><mxCell id="WU29prcdPVei9ouTIJy_-105" value="" style="endArrow=classic;html=1;rounded=0;exitX=0.5;exitY=0;exitDx=0;exitDy=0;entryX=0.964;entryY=1.003;entryDx=0;entryDy=0;entryPerimeter=0;fontColor=#101E29;strokeColor=#0A0406;" parent="1" source="WU29prcdPVei9ouTIJy_-46" target="8I9pphBKhg92I5GMk5e_-88" edge="1"><mxGeometry width="50" height="50" relative="1" as="geometry"><mxPoint x="2760" y="780" as="sourcePoint"/><mxPoint x="2810" y="730" as="targetPoint"/></mxGeometry></mxCell><mxCell id="WU29prcdPVei9ouTIJy_-106" value="" style="endArrow=classic;html=1;rounded=0;entryX=0.768;entryY=1.011;entryDx=0;entryDy=0;entryPerimeter=0;fontColor=#101E29;strokeColor=#0A0406;" parent="1" target="8I9pphBKhg92I5GMk5e_-88" edge="1"><mxGeometry width="50" height="50" relative="1" as="geometry"><mxPoint x="3110" y="1020" as="sourcePoint"/><mxPoint x="2810" y="730" as="targetPoint"/></mxGeometry></mxCell><mxCell id="WU29prcdPVei9ouTIJy_-109" value="" style="endArrow=none;dashed=1;html=1;dashPattern=1 3;strokeWidth=2;rounded=0;exitX=0.75;exitY=0;exitDx=0;exitDy=0;entryX=0.754;entryY=1.06;entryDx=0;entryDy=0;entryPerimeter=0;fontColor=#101E29;strokeColor=#0A0406;" parent="1" source="WU29prcdPVei9ouTIJy_-77" target="WU29prcdPVei9ouTIJy_-91" edge="1"><mxGeometry width="50" height="50" relative="1" as="geometry"><mxPoint x="2760" y="780" as="sourcePoint"/><mxPoint x="2810" y="730" as="targetPoint"/></mxGeometry></mxCell><mxCell id="QL8y9FrgTDBCXVsrJi1R-1" value="" style="endArrow=block;dashed=1;endFill=0;endSize=12;html=1;rounded=0;exitX=1.006;exitY=0.806;exitDx=0;exitDy=0;exitPerimeter=0;" parent="1" source="WU29prcdPVei9ouTIJy_-68" target="WU29prcdPVei9ouTIJy_-85" edge="1"><mxGeometry width="160" relative="1" as="geometry"><mxPoint x="2425" y="651" as="sourcePoint"/><mxPoint x="2585" y="651" as="targetPoint"/></mxGeometry></mxCell><mxCell id="_9OC09FncCz-NgPs_0JG-3" value="" style="endArrow=block;dashed=1;endFill=0;endSize=12;html=1;rounded=0;exitX=0.625;exitY=0;exitDx=0;exitDy=0;exitPerimeter=0;entryX=0.605;entryY=0.994;entryDx=0;entryDy=0;entryPerimeter=0;" parent="1" source="WU29prcdPVei9ouTIJy_-19" target="8I9pphBKhg92I5GMk5e_-111" edge="1"><mxGeometry width="160" relative="1" as="geometry"><mxPoint x="1789.56" y="1053.524" as="sourcePoint"/><mxPoint x="1838" y="944" as="targetPoint"/></mxGeometry></mxCell><mxCell id="_9OC09FncCz-NgPs_0JG-4" value="" style="endArrow=block;dashed=1;endFill=0;endSize=12;html=1;rounded=0;exitX=0.672;exitY=-0.017;exitDx=0;exitDy=0;exitPerimeter=0;entryX=0.25;entryY=1.025;entryDx=0;entryDy=0;entryPerimeter=0;" parent="1" source="WU29prcdPVei9ouTIJy_-15" target="8I9pphBKhg92I5GMk5e_-111" edge="1"><mxGeometry width="160" relative="1" as="geometry"><mxPoint x="1103.05" y="1754" as="sourcePoint"/><mxPoint x="1007.9999999999998" y="1581.52" as="targetPoint"/></mxGeometry></mxCell><mxCell id="_9OC09FncCz-NgPs_0JG-5" value="" style="endArrow=block;dashed=1;endFill=0;endSize=12;html=1;rounded=0;exitX=-0.008;exitY=0.139;exitDx=0;exitDy=0;exitPerimeter=0;entryX=0.75;entryY=1;entryDx=0;entryDy=0;" parent="1" source="WU29prcdPVei9ouTIJy_-74" target="WU29prcdPVei9ouTIJy_-82" edge="1"><mxGeometry width="160" relative="1" as="geometry"><mxPoint x="2491.56" y="799.5239999999999" as="sourcePoint"/><mxPoint x="2628.7286499331653" y="646" as="targetPoint"/></mxGeometry></mxCell><mxCell id="_9OC09FncCz-NgPs_0JG-6" value="" style="endArrow=block;dashed=1;endFill=0;endSize=12;html=1;rounded=0;exitX=1;exitY=0.5;exitDx=0;exitDy=0;" parent="1" source="WU29prcdPVei9ouTIJy_-85" edge="1"><mxGeometry width="160" relative="1" as="geometry"><mxPoint x="2541.56" y="849.5239999999999" as="sourcePoint"/><mxPoint x="2896" y="548" as="targetPoint"/></mxGeometry></mxCell><mxCell id="2" value="HasMortality&#10;&lt;&lt;abstract&gt;&gt;&#10;" style="swimlane;fontStyle=1;align=center;verticalAlign=top;childLayout=stackLayout;horizontal=1;startSize=46;horizontalStack=0;resizeParent=1;resizeParentMax=0;resizeLast=0;collapsible=1;marginBottom=0;hachureGap=4;pointerEvents=0;sketch=0;fontColor=#101E29;strokeColor=#0A0406;fillColor=#FFE45E;" parent="1" vertex="1"><mxGeometry x="2050" y="348" width="260" height="250" as="geometry"/></mxCell><mxCell id="3" value="-health: int &#10;-health_limit: int&#10;" style="text;strokeColor=#0A0406;fillColor=none;align=left;verticalAlign=top;spacingLeft=4;spacingRight=4;overflow=hidden;rotatable=0;points=[[0,0.5],[1,0.5]];portConstraint=eastwest;fontColor=#101E29;" parent="2" vertex="1"><mxGeometry y="46" width="260" height="54" as="geometry"/></mxCell><mxCell id="4" value="" style="line;strokeWidth=1;fillColor=none;align=left;verticalAlign=middle;spacingTop=-1;spacingLeft=3;spacingRight=3;rotatable=0;labelPosition=right;points=[];portConstraint=eastwest;fontColor=#101E29;strokeColor=#0A0406;" parent="2" vertex="1"><mxGeometry y="100" width="260" height="20" as="geometry"/></mxCell><mxCell id="5" value="+transformToSpirit()&#10;+getHealth()&#10;+setHealth()&#10;+getHealth_limit()" style="text;strokeColor=#0A0406;fillColor=none;align=left;verticalAlign=top;spacingLeft=4;spacingRight=4;overflow=hidden;rotatable=0;points=[[0,0.5],[1,0.5]];portConstraint=eastwest;fontColor=#101E29;" parent="2" vertex="1"><mxGeometry y="120" width="260" height="130" as="geometry"/></mxCell><mxCell id="6" value="StarWarsChar&#10;&lt;&lt;abstract&gt;&gt;" style="swimlane;fontStyle=1;align=center;verticalAlign=top;childLayout=stackLayout;horizontal=1;startSize=40;horizontalStack=0;resizeParent=1;resizeParentMax=0;resizeLast=0;collapsible=1;marginBottom=0;hachureGap=4;pointerEvents=0;sketch=0;fontColor=#101E29;strokeColor=#0A0406;fillColor=#FFE45E;" vertex="1" parent="1"><mxGeometry x="2294" y="1204" width="240" height="194" as="geometry"/></mxCell><mxCell id="7" value="-imageType" style="text;strokeColor=#0A0406;fillColor=none;align=left;verticalAlign=top;spacingLeft=4;spacingRight=4;overflow=hidden;rotatable=0;points=[[0,0.5],[1,0.5]];portConstraint=eastwest;fontColor=#101E29;" vertex="1" parent="6"><mxGeometry y="40" width="240" height="74" as="geometry"/></mxCell><mxCell id="8" value="" style="line;strokeWidth=1;fillColor=none;align=left;verticalAlign=middle;spacingTop=-1;spacingLeft=3;spacingRight=3;rotatable=0;labelPosition=right;points=[];portConstraint=eastwest;fontColor=#101E29;strokeColor=#0A0406;" vertex="1" parent="6"><mxGeometry y="114" width="240" height="8" as="geometry"/></mxCell><mxCell id="9" value="+getImageType&#10;+moveTo&#10;+_moveTo&#10;" style="text;strokeColor=#0A0406;fillColor=none;align=left;verticalAlign=top;spacingLeft=4;spacingRight=4;overflow=hidden;rotatable=0;points=[[0,0.5],[1,0.5]];portConstraint=eastwest;fontColor=#101E29;" vertex="1" parent="6"><mxGeometry y="122" width="240" height="72" as="geometry"/></mxCell><mxCell id="10" value="Alliance&#10;&lt;&lt;abstract&gt;&gt;" style="swimlane;fontStyle=1;align=center;verticalAlign=top;childLayout=stackLayout;horizontal=1;startSize=40;horizontalStack=0;resizeParent=1;resizeParentMax=0;resizeLast=0;collapsible=1;marginBottom=0;hachureGap=4;pointerEvents=0;sketch=0;fontColor=#101E29;strokeColor=#0A0406;fillColor=#FFE45E;" vertex="1" parent="1"><mxGeometry x="1824" y="1440" width="240" height="156" as="geometry"/></mxCell><mxCell id="11" value="" style="text;strokeColor=#0A0406;fillColor=none;align=left;verticalAlign=top;spacingLeft=4;spacingRight=4;overflow=hidden;rotatable=0;points=[[0,0.5],[1,0.5]];portConstraint=eastwest;fontColor=#101E29;" vertex="1" parent="10"><mxGeometry y="40" width="240" height="36" as="geometry"/></mxCell><mxCell id="12" value="" style="line;strokeWidth=1;fillColor=none;align=left;verticalAlign=middle;spacingTop=-1;spacingLeft=3;spacingRight=3;rotatable=0;labelPosition=right;points=[];portConstraint=eastwest;fontColor=#101E29;strokeColor=#0A0406;" vertex="1" parent="10"><mxGeometry y="76" width="240" height="8" as="geometry"/></mxCell><mxCell id="13" value="+executeActivity&#10;+StarWarsCharDeath()" style="text;strokeColor=#0A0406;fillColor=none;align=left;verticalAlign=top;spacingLeft=4;spacingRight=4;overflow=hidden;rotatable=0;points=[[0,0.5],[1,0.5]];portConstraint=eastwest;fontColor=#101E29;" vertex="1" parent="10"><mxGeometry y="84" width="240" height="72" as="geometry"/></mxCell><mxCell id="14" value="Imperial&#10;&lt;&lt;abstract&gt;&gt;" style="swimlane;fontStyle=1;align=center;verticalAlign=top;childLayout=stackLayout;horizontal=1;startSize=40;horizontalStack=0;resizeParent=1;resizeParentMax=0;resizeLast=0;collapsible=1;marginBottom=0;hachureGap=4;pointerEvents=0;sketch=0;fontColor=#101E29;strokeColor=#0A0406;fillColor=#FFE45E;" vertex="1" parent="1"><mxGeometry x="2619" y="1450" width="240" height="161" as="geometry"/></mxCell><mxCell id="15" value="" style="text;strokeColor=#0A0406;fillColor=none;align=left;verticalAlign=top;spacingLeft=4;spacingRight=4;overflow=hidden;rotatable=0;points=[[0,0.5],[1,0.5]];portConstraint=eastwest;fontColor=#101E29;" vertex="1" parent="14"><mxGeometry y="40" width="240" height="41" as="geometry"/></mxCell><mxCell id="16" value="" style="line;strokeWidth=1;fillColor=none;align=left;verticalAlign=middle;spacingTop=-1;spacingLeft=3;spacingRight=3;rotatable=0;labelPosition=right;points=[];portConstraint=eastwest;fontColor=#101E29;strokeColor=#0A0406;" vertex="1" parent="14"><mxGeometry y="81" width="240" height="8" as="geometry"/></mxCell><mxCell id="17" value="+executeActivity()&#10;+StarWarsCharDeath()" style="text;strokeColor=#0A0406;fillColor=none;align=left;verticalAlign=top;spacingLeft=4;spacingRight=4;overflow=hidden;rotatable=0;points=[[0,0.5],[1,0.5]];portConstraint=eastwest;fontColor=#101E29;" vertex="1" parent="14"><mxGeometry y="89" width="240" height="72" as="geometry"/></mxCell><mxCell id="18" value="ChrisVader&#10;" style="swimlane;fontStyle=1;align=center;verticalAlign=top;childLayout=stackLayout;horizontal=1;startSize=40;horizontalStack=0;resizeParent=1;resizeParentMax=0;resizeLast=0;collapsible=1;marginBottom=0;hachureGap=4;pointerEvents=0;sketch=0;fontColor=#101E29;strokeColor=#0A0406;fillColor=#FFE45E;" vertex="1" parent="1"><mxGeometry x="2421" y="1725" width="131" height="69" as="geometry"/></mxCell><mxCell id="19" value="" style="text;strokeColor=#0A0406;fillColor=none;align=left;verticalAlign=top;spacingLeft=4;spacingRight=4;overflow=hidden;rotatable=0;points=[[0,0.5],[1,0.5]];portConstraint=eastwest;fontColor=#101E29;" vertex="1" parent="18"><mxGeometry y="40" width="131" height="29" as="geometry"/></mxCell><mxCell id="22" value="KirstenSkywalker" style="swimlane;fontStyle=1;align=center;verticalAlign=top;childLayout=stackLayout;horizontal=1;startSize=40;horizontalStack=0;resizeParent=1;resizeParentMax=0;resizeLast=0;collapsible=1;marginBottom=0;hachureGap=4;pointerEvents=0;sketch=0;fontColor=#101E29;strokeColor=#0A0406;fillColor=#FFE45E;" vertex="1" parent="1"><mxGeometry x="1662" y="1740" width="121" height="67" as="geometry"/></mxCell><mxCell id="65" style="edgeStyle=orthogonalEdgeStyle;rounded=0;orthogonalLoop=1;jettySize=auto;html=1;" edge="1" parent="1" source="24"><mxGeometry relative="1" as="geometry"><mxPoint x="1877" y="1736.5294117647059" as="targetPoint"/></mxGeometry></mxCell><mxCell id="24" value="AntoBiWan&#10;" style="swimlane;fontStyle=1;align=center;verticalAlign=top;childLayout=stackLayout;horizontal=1;startSize=40;horizontalStack=0;resizeParent=1;resizeParentMax=0;resizeLast=0;collapsible=1;marginBottom=0;hachureGap=4;pointerEvents=0;sketch=0;fontColor=#101E29;strokeColor=#0A0406;fillColor=#FFE45E;" vertex="1" parent="1"><mxGeometry x="1818" y="1740" width="118" height="65" as="geometry"/></mxCell><mxCell id="25" value="" style="text;strokeColor=#0A0406;fillColor=none;align=left;verticalAlign=top;spacingLeft=4;spacingRight=4;overflow=hidden;rotatable=0;points=[[0,0.5],[1,0.5]];portConstraint=eastwest;fontColor=#101E29;" vertex="1" parent="24"><mxGeometry y="40" width="118" height="25" as="geometry"/></mxCell><mxCell id="26" value="Zuko" style="swimlane;fontStyle=1;align=center;verticalAlign=top;childLayout=stackLayout;horizontal=1;startSize=40;horizontalStack=0;resizeParent=1;resizeParentMax=0;resizeLast=0;collapsible=1;marginBottom=0;hachureGap=4;pointerEvents=0;sketch=0;fontColor=#101E29;strokeColor=#0A0406;fillColor=#FFE45E;" vertex="1" parent="1"><mxGeometry x="1963" y="1740" width="118" height="65" as="geometry"/></mxCell><mxCell id="27" value="" style="text;strokeColor=#0A0406;fillColor=none;align=left;verticalAlign=top;spacingLeft=4;spacingRight=4;overflow=hidden;rotatable=0;points=[[0,0.5],[1,0.5]];portConstraint=eastwest;fontColor=#101E29;" vertex="1" parent="26"><mxGeometry y="40" width="118" height="25" as="geometry"/></mxCell><mxCell id="28" value="Kendama" style="swimlane;fontStyle=1;align=center;verticalAlign=top;childLayout=stackLayout;horizontal=1;startSize=40;horizontalStack=0;resizeParent=1;resizeParentMax=0;resizeLast=0;collapsible=1;marginBottom=0;hachureGap=4;pointerEvents=0;sketch=0;fontColor=#101E29;strokeColor=#0A0406;fillColor=#FFE45E;" vertex="1" parent="1"><mxGeometry x="2114" y="1740" width="118" height="65" as="geometry"/></mxCell><mxCell id="29" value="" style="text;strokeColor=#0A0406;fillColor=none;align=left;verticalAlign=top;spacingLeft=4;spacingRight=4;overflow=hidden;rotatable=0;points=[[0,0.5],[1,0.5]];portConstraint=eastwest;fontColor=#101E29;" vertex="1" parent="28"><mxGeometry y="40" width="118" height="25" as="geometry"/></mxCell><mxCell id="30" value="QuehaLoRen" style="swimlane;fontStyle=1;align=center;verticalAlign=top;childLayout=stackLayout;horizontal=1;startSize=40;horizontalStack=0;resizeParent=1;resizeParentMax=0;resizeLast=0;collapsible=1;marginBottom=0;hachureGap=4;pointerEvents=0;sketch=0;fontColor=#101E29;strokeColor=#0A0406;fillColor=#FFE45E;" vertex="1" parent="1"><mxGeometry x="2577" y="1725" width="131" height="68" as="geometry"/></mxCell><mxCell id="31" value="" style="text;strokeColor=#0A0406;fillColor=none;align=left;verticalAlign=top;spacingLeft=4;spacingRight=4;overflow=hidden;rotatable=0;points=[[0,0.5],[1,0.5]];portConstraint=eastwest;fontColor=#101E29;" vertex="1" parent="30"><mxGeometry y="40" width="131" height="28" as="geometry"/></mxCell><mxCell id="34" value="Stormtrooper" style="swimlane;fontStyle=1;align=center;verticalAlign=top;childLayout=stackLayout;horizontal=1;startSize=40;horizontalStack=0;resizeParent=1;resizeParentMax=0;resizeLast=0;collapsible=1;marginBottom=0;hachureGap=4;pointerEvents=0;sketch=0;fontColor=#101E29;strokeColor=#0A0406;fillColor=#FFE45E;" vertex="1" parent="1"><mxGeometry x="2761" y="1727" width="240" height="194" as="geometry"/></mxCell><mxCell id="35" value="+points&#10;+laserImage&#10;+imageStore" style="text;strokeColor=#0A0406;fillColor=none;align=left;verticalAlign=top;spacingLeft=4;spacingRight=4;overflow=hidden;rotatable=0;points=[[0,0.5],[1,0.5]];portConstraint=eastwest;fontColor=#101E29;" vertex="1" parent="34"><mxGeometry y="40" width="240" height="74" as="geometry"/></mxCell><mxCell id="36" value="" style="line;strokeWidth=1;fillColor=none;align=left;verticalAlign=middle;spacingTop=-1;spacingLeft=3;spacingRight=3;rotatable=0;labelPosition=right;points=[];portConstraint=eastwest;fontColor=#101E29;strokeColor=#0A0406;" vertex="1" parent="34"><mxGeometry y="114" width="240" height="8" as="geometry"/></mxCell><mxCell id="37" value="+moveTo()&#10;+_moveTo()&#10;+nextPosition()" style="text;strokeColor=#0A0406;fillColor=none;align=left;verticalAlign=top;spacingLeft=4;spacingRight=4;overflow=hidden;rotatable=0;points=[[0,0.5],[1,0.5]];portConstraint=eastwest;fontColor=#101E29;" vertex="1" parent="34"><mxGeometry y="122" width="240" height="72" as="geometry"/></mxCell><mxCell id="38" value="BadShip" style="swimlane;fontStyle=1;align=center;verticalAlign=top;childLayout=stackLayout;horizontal=1;startSize=26;horizontalStack=0;resizeParent=1;resizeParentMax=0;resizeLast=0;collapsible=1;marginBottom=0;hachureGap=4;pointerEvents=0;sketch=0;fontColor=#101E29;strokeColor=#0A0406;fillColor=#FFE45E;" vertex="1" parent="1"><mxGeometry x="1961" y="-16" width="170" height="80" as="geometry"/></mxCell><mxCell id="39" value="" style="line;strokeWidth=1;fillColor=none;align=left;verticalAlign=middle;spacingTop=-1;spacingLeft=3;spacingRight=3;rotatable=0;labelPosition=right;points=[];portConstraint=eastwest;fontColor=#101E29;strokeColor=#0A0406;" vertex="1" parent="38"><mxGeometry y="26" width="170" height="8" as="geometry"/></mxCell><mxCell id="40" value="" style="text;strokeColor=#0A0406;fillColor=none;align=left;verticalAlign=top;spacingLeft=4;spacingRight=4;overflow=hidden;rotatable=0;points=[[0,0.5],[1,0.5]];portConstraint=eastwest;fontColor=#101E29;" vertex="1" parent="38"><mxGeometry y="34" width="170" height="46" as="geometry"/></mxCell><mxCell id="41" value="GoodShip" style="swimlane;fontStyle=1;align=center;verticalAlign=top;childLayout=stackLayout;horizontal=1;startSize=26;horizontalStack=0;resizeParent=1;resizeParentMax=0;resizeLast=0;collapsible=1;marginBottom=0;hachureGap=4;pointerEvents=0;sketch=0;fontColor=#101E29;strokeColor=#0A0406;fillColor=#FFE45E;" vertex="1" parent="1"><mxGeometry x="1961" y="102" width="170" height="80" as="geometry"/></mxCell><mxCell id="42" value="" style="line;strokeWidth=1;fillColor=none;align=left;verticalAlign=middle;spacingTop=-1;spacingLeft=3;spacingRight=3;rotatable=0;labelPosition=right;points=[];portConstraint=eastwest;fontColor=#101E29;strokeColor=#0A0406;" vertex="1" parent="41"><mxGeometry y="26" width="170" height="8" as="geometry"/></mxCell><mxCell id="43" value="" style="text;strokeColor=#0A0406;fillColor=none;align=left;verticalAlign=top;spacingLeft=4;spacingRight=4;overflow=hidden;rotatable=0;points=[[0,0.5],[1,0.5]];portConstraint=eastwest;fontColor=#101E29;" vertex="1" parent="41"><mxGeometry y="34" width="170" height="46" as="geometry"/></mxCell><mxCell id="44" value="Spirit" style="swimlane;fontStyle=1;align=center;verticalAlign=top;childLayout=stackLayout;horizontal=1;startSize=26;horizontalStack=0;resizeParent=1;resizeParentMax=0;resizeLast=0;collapsible=1;marginBottom=0;hachureGap=4;pointerEvents=0;sketch=0;fontColor=#101E29;strokeColor=#0A0406;fillColor=#FFE45E;" vertex="1" parent="1"><mxGeometry x="3307" y="435" width="150" height="108" as="geometry"/></mxCell><mxCell id="45" value="-animationPeriod" style="text;strokeColor=#0A0406;fillColor=none;align=left;verticalAlign=top;spacingLeft=4;spacingRight=4;overflow=hidden;rotatable=0;points=[[0,0.5],[1,0.5]];portConstraint=eastwest;fontColor=#101E29;" vertex="1" parent="44"><mxGeometry y="26" width="150" height="74" as="geometry"/></mxCell><mxCell id="46" value="" style="line;strokeWidth=1;fillColor=none;align=left;verticalAlign=middle;spacingTop=-1;spacingLeft=3;spacingRight=3;rotatable=0;labelPosition=right;points=[];portConstraint=eastwest;fontColor=#101E29;strokeColor=#0A0406;" vertex="1" parent="44"><mxGeometry y="100" width="150" height="8" as="geometry"/></mxCell><mxCell id="48" value="LaserBlast" style="swimlane;fontStyle=1;align=center;verticalAlign=top;childLayout=stackLayout;horizontal=1;startSize=26;horizontalStack=0;resizeParent=1;resizeParentMax=0;resizeLast=0;collapsible=1;marginBottom=0;hachureGap=4;pointerEvents=0;sketch=0;fontColor=#101E29;strokeColor=#0A0406;fillColor=#FFE45E;" vertex="1" parent="1"><mxGeometry x="2545" y="658" width="150" height="180" as="geometry"/></mxCell><mxCell id="49" value="-animationPeriod&#10;-actionPeriod&#10;-direction" style="text;strokeColor=#0A0406;fillColor=none;align=left;verticalAlign=top;spacingLeft=4;spacingRight=4;overflow=hidden;rotatable=0;points=[[0,0.5],[1,0.5]];portConstraint=eastwest;fontColor=#101E29;" vertex="1" parent="48"><mxGeometry y="26" width="150" height="74" as="geometry"/></mxCell><mxCell id="50" value="" style="line;strokeWidth=1;fillColor=none;align=left;verticalAlign=middle;spacingTop=-1;spacingLeft=3;spacingRight=3;rotatable=0;labelPosition=right;points=[];portConstraint=eastwest;fontColor=#101E29;strokeColor=#0A0406;" vertex="1" parent="48"><mxGeometry y="100" width="150" height="8" as="geometry"/></mxCell><mxCell id="51" value="+executeActivity()&#10;+moveTo()" style="text;strokeColor=#0A0406;fillColor=none;align=left;verticalAlign=top;spacingLeft=4;spacingRight=4;overflow=hidden;rotatable=0;points=[[0,0.5],[1,0.5]];portConstraint=eastwest;fontColor=#101E29;" vertex="1" parent="48"><mxGeometry y="108" width="150" height="72" as="geometry"/></mxCell><mxCell id="53" value="" style="endArrow=classic;html=1;rounded=0;entryX=0;entryY=0.5;entryDx=0;entryDy=0;exitX=0.5;exitY=0;exitDx=0;exitDy=0;fontColor=#101E29;strokeColor=#0A0406;" edge="1" parent="1" source="2" target="8I9pphBKhg92I5GMk5e_-88"><mxGeometry width="50" height="50" relative="1" as="geometry"><mxPoint x="2186.36" y="337.3" as="sourcePoint"/><mxPoint x="2034.0000000000005" y="243.99999999999983" as="targetPoint"/></mxGeometry></mxCell><mxCell id="54" value="" style="endArrow=classic;html=1;rounded=0;exitX=0;exitY=0.5;exitDx=0;exitDy=0;fontColor=#101E29;strokeColor=#0A0406;" edge="1" parent="1" source="51" target="8I9pphBKhg92I5GMk5e_-88"><mxGeometry width="50" height="50" relative="1" as="geometry"><mxPoint x="2230" y="398" as="sourcePoint"/><mxPoint x="2490" y="328" as="targetPoint"/></mxGeometry></mxCell><mxCell id="55" value="" style="endArrow=classic;html=1;rounded=0;entryX=0.517;entryY=1.029;entryDx=0;entryDy=0;exitX=0.5;exitY=0;exitDx=0;exitDy=0;fontColor=#101E29;strokeColor=#0A0406;entryPerimeter=0;" edge="1" parent="1" source="48" target="WU29prcdPVei9ouTIJy_-85"><mxGeometry width="50" height="50" relative="1" as="geometry"><mxPoint x="2280" y="448" as="sourcePoint"/><mxPoint x="2540" y="378" as="targetPoint"/></mxGeometry></mxCell><mxCell id="56" value="" style="endArrow=classic;html=1;rounded=0;entryX=0;entryY=0.5;entryDx=0;entryDy=0;exitX=1;exitY=0.5;exitDx=0;exitDy=0;fontColor=#101E29;strokeColor=#0A0406;" edge="1" parent="1" source="40" target="8I9pphBKhg92I5GMk5e_-86"><mxGeometry width="50" height="50" relative="1" as="geometry"><mxPoint x="2330" y="498" as="sourcePoint"/><mxPoint x="2590" y="428" as="targetPoint"/></mxGeometry></mxCell><mxCell id="57" value="" style="endArrow=classic;html=1;rounded=0;entryX=0.006;entryY=0.844;entryDx=0;entryDy=0;exitX=1;exitY=0.5;exitDx=0;exitDy=0;fontColor=#101E29;strokeColor=#0A0406;entryPerimeter=0;" edge="1" parent="1" source="43" target="8I9pphBKhg92I5GMk5e_-86"><mxGeometry width="50" height="50" relative="1" as="geometry"><mxPoint x="2380" y="548" as="sourcePoint"/><mxPoint x="2640" y="478" as="targetPoint"/></mxGeometry></mxCell><mxCell id="58" value="" style="endArrow=classic;html=1;rounded=0;entryX=1.017;entryY=0.345;entryDx=0;entryDy=0;exitX=0;exitY=0.5;exitDx=0;exitDy=0;fontColor=#101E29;strokeColor=#0A0406;entryPerimeter=0;" edge="1" parent="1" source="45" target="WU29prcdPVei9ouTIJy_-91"><mxGeometry width="50" height="50" relative="1" as="geometry"><mxPoint x="2430" y="598" as="sourcePoint"/><mxPoint x="2690" y="528" as="targetPoint"/></mxGeometry></mxCell><mxCell id="59" value="" style="endArrow=classic;html=1;rounded=0;exitX=0.5;exitY=0;exitDx=0;exitDy=0;fontColor=#101E29;strokeColor=#0A0406;entryX=1;entryY=0.5;entryDx=0;entryDy=0;" edge="1" parent="1" source="44" target="8I9pphBKhg92I5GMk5e_-88"><mxGeometry width="50" height="50" relative="1" as="geometry"><mxPoint x="2480" y="648" as="sourcePoint"/><mxPoint x="2908" y="278" as="targetPoint"/></mxGeometry></mxCell><mxCell id="60" value="" style="endArrow=classic;html=1;rounded=0;exitX=0.5;exitY=0;exitDx=0;exitDy=0;fontColor=#101E29;strokeColor=#0A0406;" edge="1" parent="1" source="6"><mxGeometry width="50" height="50" relative="1" as="geometry"><mxPoint x="2530" y="698" as="sourcePoint"/><mxPoint x="2286" y="946" as="targetPoint"/></mxGeometry></mxCell><mxCell id="61" value="" style="endArrow=classic;html=1;rounded=0;entryX=0;entryY=0.5;entryDx=0;entryDy=0;exitX=0.5;exitY=0;exitDx=0;exitDy=0;fontColor=#101E29;strokeColor=#0A0406;" edge="1" parent="1" source="10" target="7"><mxGeometry width="50" height="50" relative="1" as="geometry"><mxPoint x="2580" y="748" as="sourcePoint"/><mxPoint x="2840" y="678" as="targetPoint"/></mxGeometry></mxCell><mxCell id="62" value="" style="endArrow=classic;html=1;rounded=0;entryX=1;entryY=0.5;entryDx=0;entryDy=0;exitX=0.5;exitY=0;exitDx=0;exitDy=0;fontColor=#101E29;strokeColor=#0A0406;" edge="1" parent="1" source="14" target="7"><mxGeometry width="50" height="50" relative="1" as="geometry"><mxPoint x="2630" y="798" as="sourcePoint"/><mxPoint x="2890" y="728" as="targetPoint"/></mxGeometry></mxCell><mxCell id="63" value="" style="endArrow=classic;html=1;rounded=0;entryX=0.3;entryY=1;entryDx=0;entryDy=0;exitX=0.75;exitY=0;exitDx=0;exitDy=0;fontColor=#101E29;strokeColor=#0A0406;entryPerimeter=0;" edge="1" parent="1" source="22" target="13"><mxGeometry width="50" height="50" relative="1" as="geometry"><mxPoint x="2680" y="848" as="sourcePoint"/><mxPoint x="2940" y="778" as="targetPoint"/></mxGeometry></mxCell><mxCell id="64" value="" style="endArrow=classic;html=1;rounded=0;entryX=0.472;entryY=1.051;entryDx=0;entryDy=0;exitX=0.5;exitY=0;exitDx=0;exitDy=0;fontColor=#101E29;strokeColor=#0A0406;entryPerimeter=0;" edge="1" parent="1" source="24" target="13"><mxGeometry width="50" height="50" relative="1" as="geometry"><mxPoint x="1802.7499999999995" y="1790" as="sourcePoint"/><mxPoint x="1946" y="1684" as="targetPoint"/></mxGeometry></mxCell><mxCell id="67" value="" style="endArrow=classic;html=1;rounded=0;entryX=0.654;entryY=1.019;entryDx=0;entryDy=0;exitX=0.5;exitY=0;exitDx=0;exitDy=0;fontColor=#101E29;strokeColor=#0A0406;entryPerimeter=0;" edge="1" parent="1" source="26" target="13"><mxGeometry width="50" height="50" relative="1" as="geometry"><mxPoint x="1852.7499999999995" y="1840" as="sourcePoint"/><mxPoint x="1996" y="1734" as="targetPoint"/></mxGeometry></mxCell><mxCell id="68" value="" style="endArrow=classic;html=1;rounded=0;entryX=0.855;entryY=1.019;entryDx=0;entryDy=0;exitX=0.5;exitY=0;exitDx=0;exitDy=0;fontColor=#101E29;strokeColor=#0A0406;entryPerimeter=0;" edge="1" parent="1" source="28" target="13"><mxGeometry width="50" height="50" relative="1" as="geometry"><mxPoint x="1902.7499999999995" y="1890" as="sourcePoint"/><mxPoint x="2046" y="1784" as="targetPoint"/></mxGeometry></mxCell><mxCell id="69" value="" style="endArrow=classic;html=1;rounded=0;entryX=0.121;entryY=1.011;entryDx=0;entryDy=0;exitX=0.5;exitY=0;exitDx=0;exitDy=0;fontColor=#101E29;strokeColor=#0A0406;entryPerimeter=0;" edge="1" parent="1" source="18" target="17"><mxGeometry width="50" height="50" relative="1" as="geometry"><mxPoint x="1952.7499999999995" y="1940" as="sourcePoint"/><mxPoint x="2096" y="1834" as="targetPoint"/></mxGeometry></mxCell><mxCell id="70" value="" style="endArrow=classic;html=1;rounded=0;entryX=0.449;entryY=1.027;entryDx=0;entryDy=0;exitX=0.5;exitY=0;exitDx=0;exitDy=0;fontColor=#101E29;strokeColor=#0A0406;entryPerimeter=0;" edge="1" parent="1" source="30" target="17"><mxGeometry width="50" height="50" relative="1" as="geometry"><mxPoint x="2002.7499999999995" y="1990" as="sourcePoint"/><mxPoint x="2146" y="1884" as="targetPoint"/></mxGeometry></mxCell><mxCell id="71" value="" style="endArrow=classic;html=1;rounded=0;entryX=0.66;entryY=1.027;entryDx=0;entryDy=0;exitX=0.5;exitY=0;exitDx=0;exitDy=0;fontColor=#101E29;strokeColor=#0A0406;entryPerimeter=0;" edge="1" parent="1" source="34" target="17"><mxGeometry width="50" height="50" relative="1" as="geometry"><mxPoint x="2052.7499999999995" y="2040" as="sourcePoint"/><mxPoint x="2196" y="1934" as="targetPoint"/></mxGeometry></mxCell><mxCell id="72" value="" style="endArrow=classic;html=1;rounded=0;entryX=0.993;entryY=0.781;entryDx=0;entryDy=0;exitX=0.5;exitY=0;exitDx=0;exitDy=0;fontColor=#101E29;strokeColor=#0A0406;entryPerimeter=0;" edge="1" parent="1" source="WU29prcdPVei9ouTIJy_-73" target="8I9pphBKhg92I5GMk5e_-86"><mxGeometry width="50" height="50" relative="1" as="geometry"><mxPoint x="2102.7499999999995" y="2090" as="sourcePoint"/><mxPoint x="2246" y="1984" as="targetPoint"/></mxGeometry></mxCell></root></mxGraphModel></diagram></mxfile>